<?xml version="1.0" encoding="utf-8"?>
<!-- Generator: Adobe Illustrator 19.0.0, SVG Export Plug-In . SVG Version: 6.00 Build 0)  -->
<svg version="1.1" id="图层_1" xmlns="http://www.w3.org/2000/svg" xmlns:xlink="http://www.w3.org/1999/xlink" x="0px" y="0px"
	 viewBox="0 0 32 32" style="enable-background:new 0 0 32 32;" xml:space="preserve">
<g id="XMLID_587_">
	<path id="XMLID_596_" d="M16,2C11,2,6.5,4.6,4,8.8V8c0-0.6-0.4-1-1-1S2,7.4,2,8v4c0,0.6,0.4,1,1,1h4c0.6,0,1-0.4,1-1s-0.4-1-1-1
		H5.1c2-4.3,6.2-7,10.9-7c6.6,0,12,5.4,12,12s-5.4,12-12,12c-4.8,0-9.2-2.9-11-7.3c-0.2-0.5-0.8-0.7-1.3-0.5
		c-0.5,0.2-0.7,0.8-0.5,1.3C5.3,26.7,10.4,30,16,30c7.7,0,14-6.3,14-14S23.7,2,16,2z"/>
</g>
</svg>
