<?xml version="1.0" encoding="utf-8"?>
<!-- Generator: Adobe Illustrator 19.0.0, SVG Export Plug-In . SVG Version: 6.00 Build 0)  -->
<svg version="1.1" id="图层_1" xmlns="http://www.w3.org/2000/svg" xmlns:xlink="http://www.w3.org/1999/xlink" x="0px" y="0px"
	 viewBox="0 0 32 32" style="enable-background:new 0 0 32 32;" xml:space="preserve">
<g id="XMLID_957_">
	<path id="XMLID_1067_" d="M28,6H4C2.9,6,2,6.9,2,8v16c0,1.1,0.9,2,2,2h24c1.1,0,2-0.9,2-2V8C30,6.9,29.1,6,28,6z M28,24H4V8h24
		L28,24z"/>
	<path id="XMLID_1037_" d="M7,21.9h8.4c0.6,0,1-0.4,1-1v-1.1c0-1.9-1.1-3.5-2.6-4.5c0.4-0.6,0.7-1.3,0.7-2c0-1.8-1.5-3.3-3.3-3.3
		s-3.3,1.5-3.3,3.3c0,0.8,0.3,1.5,0.7,2C7.1,16.2,6,17.9,6,19.9v1C6,21.5,6.4,21.9,7,21.9z M9.9,13.3c0-0.7,0.6-1.3,1.3-1.3
		s1.3,0.6,1.3,1.3s-0.6,1.3-1.3,1.3S9.9,14,9.9,13.3z M8,19.9c0-1.8,1.4-3.3,3.2-3.3c1.7,0,3.2,1.5,3.2,3.2v0.1L8,19.9L8,19.9z"/>
	<path id="XMLID_1036_" d="M19,20h5c0.6,0,1-0.4,1-1s-0.4-1-1-1h-5c-0.6,0-1,0.4-1,1S18.4,20,19,20z"/>
	<path id="XMLID_1035_" d="M19,14h6c0.6,0,1-0.4,1-1s-0.4-1-1-1h-6c-0.6,0-1,0.4-1,1S18.4,14,19,14z"/>
</g>
</svg>
