<?xml version="1.0" encoding="utf-8"?>
<!-- Generator: Adobe Illustrator 19.0.0, SVG Export Plug-In . SVG Version: 6.00 Build 0)  -->
<svg version="1.1" id="图层_1" xmlns="http://www.w3.org/2000/svg" xmlns:xlink="http://www.w3.org/1999/xlink" x="0px" y="0px"
	 viewBox="0 0 200 200" style="enable-background:new 0 0 200 200;" xml:space="preserve">
<g id="XMLID_2_">
	<polygon id="XMLID_9_" points="117,45.7 84.1,45.7 52,76.4 92.7,118.6 92.7,140.7 69.1,140.7 69.1,154.3 92.7,154.3 92.7,167.9 
		55.6,167.9 55.6,181.4 92.7,181.4 92.7,200 108.4,200 108.4,112.1 72.7,76.4 89.9,60.7 111.3,60.7 128.4,76.4 112,93.6 122,103.6 
		149.1,76.4 	"/>
	<polygon id="XMLID_8_" points="117,39.3 121.3,15 109.1,29.3 102,19.3 94.8,29.3 82.7,15 87,39.3 	"/>
	<polygon id="XMLID_7_" points="107,7.1 102,0 97,7.1 102,15 	"/>
</g>
</svg>
