<?xml version="1.0" encoding="utf-8"?>
<!-- Generator: Adobe Illustrator 19.0.0, SVG Export Plug-In . SVG Version: 6.00 Build 0)  -->
<svg version="1.1" id="图层_1" xmlns="http://www.w3.org/2000/svg" xmlns:xlink="http://www.w3.org/1999/xlink" x="0px" y="0px"
	 viewBox="0 0 32 32" style="enable-background:new 0 0 32 32;" xml:space="preserve">
<g id="XMLID_2120_">
	<path id="XMLID_420_" d="M13,2H4C2.9,2,2,2.9,2,4v9c0,1.1,0.9,2,2,2h9c1.1,0,2-0.9,2-2V4C15,2.9,14.1,2,13,2z M13,13H4V4h9L13,13z"
		/>
</g>
<g id="XMLID_2119_">
	<path id="XMLID_417_" d="M28,2h-9c-1.1,0-2,0.9-2,2v9c0,1.1,0.9,2,2,2h9c1.1,0,2-0.9,2-2V4C30,2.9,29.1,2,28,2z M28,13h-9V4h9
		L28,13z"/>
</g>
<g id="XMLID_2118_">
	<path id="XMLID_310_" d="M13,17H4c-1.1,0-2,0.9-2,2v9c0,1.1,0.9,2,2,2h9c1.1,0,2-0.9,2-2v-9C15,17.9,14.1,17,13,17z M13,28H4v-9h9
		L13,28z"/>
</g>
<g id="XMLID_2117_">
	<path id="XMLID_62_" d="M28,17h-9c-1.1,0-2,0.9-2,2v9c0,1.1,0.9,2,2,2h9c1.1,0,2-0.9,2-2v-9C30,17.9,29.1,17,28,17z M28,28h-9v-9h9
		L28,28z"/>
</g>
</svg>
