<?xml version="1.0" encoding="utf-8"?>
<!-- Generator: Adobe Illustrator 19.0.0, SVG Export Plug-In . SVG Version: 6.00 Build 0)  -->
<svg version="1.1" id="图层_1" xmlns="http://www.w3.org/2000/svg" xmlns:xlink="http://www.w3.org/1999/xlink" x="0px" y="0px"
	 viewBox="0 0 32 32" style="enable-background:new 0 0 32 32;" xml:space="preserve">
<g id="XMLID_1206_">
	<path id="XMLID_1242_" d="M16.9,28.9V5.3l7.4,7.2c0.4,0.4,1,0.4,1.4,0c0.4-0.4,0.4-1,0-1.4l-9.1-8.9c0,0-0.1,0-0.1-0.1
		c-0.1-0.1-0.1-0.1-0.2-0.1C16.2,2,16.1,2,16,2c0,0,0,0-0.1,0c0,0,0,0,0,0c-0.1,0-0.3,0-0.4,0.1c-0.1,0.1-0.2,0.1-0.3,0.2l-9,9
		c-0.2,0.2-0.3,0.5-0.3,0.7s0.1,0.5,0.3,0.7c0.4,0.4,1,0.4,1.4,0l7.3-7.3v23.6c0,0.6,0.4,1,1,1S16.9,29.5,16.9,28.9z"/>
</g>
</svg>
