<?xml version="1.0" encoding="utf-8"?>
<!-- Generator: Adobe Illustrator 19.0.0, SVG Export Plug-In . SVG Version: 6.00 Build 0)  -->
<svg version="1.1" id="图层_1" xmlns="http://www.w3.org/2000/svg" xmlns:xlink="http://www.w3.org/1999/xlink" x="0px" y="0px"
	 viewBox="0 0 32 32" style="enable-background:new 0 0 32 32;" xml:space="preserve">
<g id="XMLID_1150_">
	<path id="XMLID_1204_" d="M3,16.9h23.6l-7.2,7.4c-0.4,0.4-0.4,1,0,1.4c0.4,0.4,1,0.4,1.4,0l8.9-9.1c0,0,0-0.1,0.1-0.1
		c0.1-0.1,0.1-0.1,0.1-0.2c0-0.1,0.1-0.2,0.1-0.3c0,0,0,0,0-0.1c0,0,0,0,0,0c0-0.1,0-0.3-0.1-0.4c-0.1-0.1-0.1-0.2-0.2-0.3l-9-9
		C20.5,6,20.3,5.9,20,5.9S19.5,6,19.3,6.2c-0.4,0.4-0.4,1,0,1.4l7.3,7.3H3c-0.6,0-1,0.4-1,1S2.4,16.9,3,16.9z"/>
</g>
</svg>
