<?xml version="1.0" encoding="utf-8"?>
<!-- Generator: Adobe Illustrator 19.0.0, SVG Export Plug-In . SVG Version: 6.00 Build 0)  -->
<svg version="1.1" id="图层_1" xmlns="http://www.w3.org/2000/svg" xmlns:xlink="http://www.w3.org/1999/xlink" x="0px" y="0px"
	 viewBox="0 0 32 32" style="enable-background:new 0 0 32 32;" xml:space="preserve">
<g id="XMLID_1244_">
	<path id="XMLID_1280_" d="M29,15H5.4l7.2-7.4c0.4-0.4,0.4-1,0-1.4c-0.4-0.4-1-0.4-1.4,0l-8.9,9.1c0,0,0,0.1-0.1,0.1
		c-0.1,0.1-0.1,0.1-0.1,0.2C2,15.7,2,15.8,2,15.9c0,0,0,0,0,0.1c0,0,0,0,0,0c0,0.1,0,0.3,0.1,0.4c0.1,0.1,0.1,0.2,0.2,0.3l9,9
		c0.2,0.2,0.5,0.3,0.7,0.3s0.5-0.1,0.7-0.3c0.4-0.4,0.4-1,0-1.4L5.4,17H29c0.6,0,1-0.4,1-1S29.6,15,29,15z"/>
</g>
</svg>
