<?xml version="1.0" encoding="utf-8"?>
<!-- Generator: Adobe Illustrator 19.0.0, SVG Export Plug-In . SVG Version: 6.00 Build 0)  -->
<svg version="1.1" id="图层_1" xmlns="http://www.w3.org/2000/svg" xmlns:xlink="http://www.w3.org/1999/xlink" x="0px" y="0px"
	 viewBox="0 0 32 32" style="enable-background:new 0 0 32 32;" xml:space="preserve">
<g id="XMLID_558_">
	<circle id="XMLID_561_" cx="6" cy="24" r="2"/>
</g>
<g id="XMLID_556_">
	<path id="XMLID_557_" d="M29,7H13c-0.5,0-1,0.5-1,1s0.5,1,1,1h16c0.5,0,1-0.5,1-1S29.5,7,29,7z"/>
</g>
<g id="XMLID_554_">
	<path id="XMLID_555_" d="M29,15H13c-0.5,0-1,0.5-1,1s0.5,1,1,1h16c0.5,0,1-0.5,1-1S29.5,15,29,15z"/>
</g>
<g id="XMLID_539_">
	<path id="XMLID_553_" d="M29,23H13c-0.5,0-1,0.5-1,1s0.5,1,1,1h16c0.5,0,1-0.5,1-1S29.5,23,29,23z"/>
</g>
<g id="XMLID_606_">
	<path id="XMLID_607_" d="M5,11c-0.3,0-0.5-0.1-0.7-0.3l-2-2c-0.4-0.4-0.4-1,0-1.4s1-0.4,1.4,0L5,8.6l3.3-3.3c0.4-0.4,1-0.4,1.4,0
		s0.4,1,0,1.4l-4,4C5.5,10.9,5.3,11,5,11z"/>
</g>
<g id="XMLID_563_">
	<path id="XMLID_564_" d="M5,19c-0.3,0-0.5-0.1-0.7-0.3l-2-2c-0.4-0.4-0.4-1,0-1.4s1-0.4,1.4,0L5,16.6l3.3-3.3c0.4-0.4,1-0.4,1.4,0
		s0.4,1,0,1.4l-4,4C5.5,18.9,5.3,19,5,19z"/>
</g>
</svg>
