<?xml version="1.0" encoding="utf-8"?>
<!-- Generator: Adobe Illustrator 19.0.0, SVG Export Plug-In . SVG Version: 6.00 Build 0)  -->
<svg version="1.1" id="图层_1" xmlns="http://www.w3.org/2000/svg" xmlns:xlink="http://www.w3.org/1999/xlink" x="0px" y="0px"
	 viewBox="0 0 32 32" style="enable-background:new 0 0 32 32;" xml:space="preserve">
<g id="XMLID_502_">
	<path id="XMLID_505_" d="M28,6H4C2.9,6,2,6.9,2,8v16c0,1.1,0.9,2,2,2h24c1.1,0,2-0.9,2-2V8C30,6.9,29.1,6,28,6z M5,10
		c0-0.6,0.4-1,1-1h1c0.6,0,1,0.4,1,1v1c0,0.6-0.4,1-1,1H6c-0.6,0-1-0.4-1-1V10z M21,17c0,0.6-0.4,1-1,1H6c-0.6,0-1-0.4-1-1v-1
		c0-0.6,0.4-1,1-1h14c0.6,0,1,0.4,1,1V17z M27,17c0,0.6-0.4,1-1,1h-1c-0.6,0-1-0.4-1-1v-1c0-0.6,0.4-1,1-1h1c0.6,0,1,0.4,1,1V17z
		 M27,11c0,0.6-0.4,1-1,1H12c-0.6,0-1-0.4-1-1v-1c0-0.6,0.4-1,1-1h14c0.6,0,1,0.4,1,1V11z"/>
</g>
</svg>
