<?xml version="1.0" encoding="utf-8"?>
<!-- Generator: Adobe Illustrator 19.0.0, SVG Export Plug-In . SVG Version: 6.00 Build 0)  -->
<svg version="1.1" id="图层_1" xmlns="http://www.w3.org/2000/svg" xmlns:xlink="http://www.w3.org/1999/xlink" x="0px" y="0px"
	 viewBox="0 0 32 32" style="enable-background:new 0 0 32 32;" xml:space="preserve">
<g id="XMLID_1468_">
	<g id="XMLID_627_">
		<circle id="XMLID_6_" cx="4" cy="7.8" r="2"/>
	</g>
</g>
<g id="XMLID_1388_">
	<g id="XMLID_625_">
		<circle id="XMLID_7_" cx="4" cy="15.9" r="2"/>
	</g>
</g>
<g id="XMLID_1381_">
	<g id="XMLID_623_">
		<circle id="XMLID_8_" cx="4" cy="23.9" r="2"/>
	</g>
</g>
<g id="XMLID_1380_">
	<g id="XMLID_621_">
		<path id="XMLID_463_" d="M29,8.8H11c-0.5,0-1-0.4-1-1l0,0c0-0.5,0.4-1,1-1h18c0.5,0,1,0.4,1,1l0,0C30,8.3,29.6,8.8,29,8.8z"/>
	</g>
</g>
<g id="XMLID_1379_">
	<g id="XMLID_619_">
		<path id="XMLID_457_" d="M29,16.9H11c-0.5,0-1-0.4-1-1l0,0c0-0.6,0.4-1,1-1h18c0.5,0,1,0.4,1,1l0,0C30,16.4,29.6,16.9,29,16.9z"/>
	</g>
</g>
<g id="XMLID_1378_">
	<g id="XMLID_617_">
		<path id="XMLID_454_" d="M29,24.9H11c-0.5,0-1-0.4-1-1l0,0c0-0.5,0.4-1,1-1h18c0.5,0,1,0.5,1,1l0,0C30,24.4,29.6,24.9,29,24.9z"/>
	</g>
</g>
</svg>
