<?xml version="1.0" encoding="utf-8"?>
<!-- Generator: Adobe Illustrator 19.0.0, SVG Export Plug-In . SVG Version: 6.00 Build 0)  -->
<svg version="1.1" id="图层_1" xmlns="http://www.w3.org/2000/svg" xmlns:xlink="http://www.w3.org/1999/xlink" x="0px" y="0px"
	 viewBox="0 0 32 32" style="enable-background:new 0 0 32 32;" xml:space="preserve">
<g id="XMLID_753_">
	<path id="XMLID_897_" d="M28,2H4C2.9,2,2,2.9,2,4v24c0,1.1,0.9,2,2,2h24c1.1,0,2-0.9,2-2V4C30,2.9,29.1,2,28,2z M6,27
		c0,0.6-0.4,1-1,1s-1-0.4-1-1v-1c0-0.6,0.4-1,1-1s1,0.4,1,1V27z M13,27c0,0.6-0.4,1-1,1s-1-0.4-1-1v-1c0-0.6,0.4-1,1-1s1,0.4,1,1V27
		z M20,27c0,0.6-0.4,1-1,1s-1-0.4-1-1v-1c0-0.6,0.4-1,1-1s1,0.4,1,1V27z M28,27c0,0.6-0.4,1-1,1s-1-0.4-1-1v-1c0-0.6,0.4-1,1-1
		s1,0.4,1,1V27z M28,12c0,0.6-0.4,1-1,1H17v3h8c0.6,0,1,0.4,1,1s-0.4,1-1,1h-8v3h10c0.6,0,1,0.4,1,1s-0.4,1-1,1H17h-2H5
		c-0.6,0-1-0.4-1-1s0.4-1,1-1h10v-3H7c-0.6,0-1-0.4-1-1s0.4-1,1-1h8v-3H5c-0.6,0-1-0.4-1-1V5c0-0.6,0.4-1,1-1h22c0.6,0,1,0.4,1,1V12
		z"/>
	<path id="XMLID_894_" d="M17,11h9V6h-9V11z M20.3,8.3l1-1c0.4-0.4,1-0.4,1.4,0s0.4,1,0,1.4l-1,1C21.5,9.9,21.3,10,21,10
		s-0.5-0.1-0.7-0.3C19.9,9.3,19.9,8.7,20.3,8.3z"/>
	<path id="XMLID_881_" d="M6,11h9V6H6V11z M9.3,7.3c0.4-0.4,1-0.4,1.4,0l1,1c0.4,0.4,0.4,1,0,1.4C11.5,9.9,11.3,10,11,10
		s-0.5-0.1-0.7-0.3l-1-1C8.9,8.3,8.9,7.7,9.3,7.3z"/>
</g>
</svg>
