<?xml version="1.0" encoding="utf-8"?>
<!-- Generator: Adobe Illustrator 19.0.0, SVG Export Plug-In . SVG Version: 6.00 Build 0)  -->
<svg version="1.1" id="图层_1" xmlns="http://www.w3.org/2000/svg" xmlns:xlink="http://www.w3.org/1999/xlink" x="0px" y="0px"
	 viewBox="0 0 32 32" style="enable-background:new 0 0 32 32;" xml:space="preserve">
<g id="XMLID_1168_">
	<path id="XMLID_1497_" d="M25,4H9C7.9,4,7,4.9,7,6v2H6C5.4,8,5,8.4,5,9s0.4,1,1,1h1v5H6c-0.6,0-1,0.4-1,1s0.4,1,1,1h1v5H6
		c-0.6,0-1,0.4-1,1s0.4,1,1,1h1v2c0,1.1,0.9,2,2,2h16c1.1,0,2-0.9,2-2V6C27,4.9,26.1,4,25,4z M25,26H9V6h16V26z"/>
	<path id="XMLID_1494_" d="M12,17h10c0.6,0,1-0.4,1-1v-5c0-0.6-0.4-1-1-1H12c-0.6,0-1,0.4-1,1v5C11,16.6,11.4,17,12,17z M13,12h8v3
		h-8V12z"/>
</g>
</svg>
