<?xml version="1.0" encoding="utf-8"?>
<!-- Generator: Adobe Illustrator 19.0.0, SVG Export Plug-In . SVG Version: 6.00 Build 0)  -->
<svg version="1.1" id="图层_1" xmlns="http://www.w3.org/2000/svg" xmlns:xlink="http://www.w3.org/1999/xlink" x="0px" y="0px"
	 viewBox="0 0 32 32" style="enable-background:new 0 0 32 32;" xml:space="preserve">
<g id="XMLID_1_">
	<path id="XMLID_6_" d="M26,5h-2V4c0-0.6-0.4-1-1-1s-1,0.4-1,1v1H10V4c0-0.6-0.4-1-1-1S8,3.4,8,4v1H6C4.9,5,4,5.9,4,7v20
		c0,1.1,0.9,2,2,2h20c1.1,0,2-0.9,2-2V7C28,5.9,27.1,5,26,5z M26,7v2H6V7H26z M26,27H6V11h20V27z"/>
	<path id="XMLID_5_" d="M9,18c-0.6,0-1,0.4-1,1v4c0,0.6,0.4,1,1,1h5c0.6,0,1-0.4,1-1s-0.4-1-1-1h-4v-2h4c0.6,0,1-0.4,1-1v-4
		c0-0.6-0.4-1-1-1H9c-0.6,0-1,0.4-1,1s0.4,1,1,1h4v2H9z"/>
	<path id="XMLID_4_" d="M18,20h4v3c0,0.6,0.4,1,1,1s1-0.4,1-1v-8c0-0.6-0.4-1-1-1s-1,0.4-1,1v3h-3v-3c0-0.6-0.4-1-1-1s-1,0.4-1,1v4
		C17,19.6,17.4,20,18,20z"/>
</g>
</svg>
