<?xml version="1.0" encoding="utf-8"?>
<!-- Generator: Adobe Illustrator 19.0.0, SVG Export Plug-In . SVG Version: 6.00 Build 0)  -->
<svg version="1.1" id="图层_1" xmlns="http://www.w3.org/2000/svg" xmlns:xlink="http://www.w3.org/1999/xlink" x="0px" y="0px"
	 viewBox="0 0 32 32" style="enable-background:new 0 0 32 32;" xml:space="preserve">
<g id="XMLID_1406_">
	<path id="XMLID_1409_" d="M27.9,4.6c-0.1-0.2-0.3-0.4-0.5-0.5C27.3,4,27.1,4,27,4H5C4.4,4,4,4.4,4,5s0.4,1,1,1h19.6L4.3,26.3
		c-0.4,0.4-0.4,1,0,1.4C4.5,27.9,4.7,28,5,28s0.5-0.1,0.7-0.3L26,7.4V27c0,0.6,0.4,1,1,1s1-0.4,1-1V5C28,4.9,28,4.7,27.9,4.6z"/>
</g>
</svg>
