<?xml version="1.0" encoding="utf-8"?>
<!-- Generator: Adobe Illustrator 19.0.0, SVG Export Plug-In . SVG Version: 6.00 Build 0)  -->
<svg version="1.1" id="图层_1" xmlns="http://www.w3.org/2000/svg" xmlns:xlink="http://www.w3.org/1999/xlink" x="0px" y="0px"
	 viewBox="0 0 32 32" style="enable-background:new 0 0 32 32;" xml:space="preserve">
<g id="XMLID_1407_">
	<path id="XMLID_1408_" d="M4.1,27.4c0.1,0.2,0.3,0.4,0.5,0.5C4.7,28,4.9,28,5,28h22c0.6,0,1-0.4,1-1s-0.4-1-1-1H7.4L27.7,5.7
		c0.4-0.4,0.4-1,0-1.4C27.5,4.1,27.3,4,27,4s-0.5,0.1-0.7,0.3L6,24.6V5c0-0.6-0.4-1-1-1S4,4.4,4,5v22C4,27.1,4,27.3,4.1,27.4z"/>
</g>
</svg>
