<?xml version="1.0" encoding="utf-8"?>
<!-- Generator: Adobe Illustrator 19.0.0, SVG Export Plug-In . SVG Version: 6.00 Build 0)  -->
<svg version="1.1" id="图层_1" xmlns="http://www.w3.org/2000/svg" xmlns:xlink="http://www.w3.org/1999/xlink" x="0px" y="0px"
	 viewBox="0 0 32 32" style="enable-background:new 0 0 32 32;" xml:space="preserve">
<g id="XMLID_1462_">
	<path id="XMLID_303_" d="M29.7,11.3l-9-9c-0.4-0.4-1-0.4-1.4,0s-0.4,1,0,1.4l7.3,7.3H3c-0.6,0-1,0.4-1,1s0.4,1,1,1h26
		c0.4,0,0.8-0.2,0.9-0.6C30.1,12,30,11.6,29.7,11.3z"/>
</g>
<g id="XMLID_1461_">
	<path id="XMLID_53_" d="M29,19H3c-0.4,0-0.8,0.2-0.9,0.6C1.9,20,2,20.4,2.3,20.7l9,9c0.2,0.2,0.5,0.3,0.7,0.3s0.5-0.1,0.7-0.3
		c0.4-0.4,0.4-1,0-1.4L5.4,21H29c0.6,0,1-0.4,1-1S29.6,19,29,19z"/>
</g>
</svg>
