<?xml version="1.0" encoding="utf-8"?>
<!-- Generator: Adobe Illustrator 19.0.0, SVG Export Plug-In . SVG Version: 6.00 Build 0)  -->
<svg version="1.1" id="图层_1" xmlns="http://www.w3.org/2000/svg" xmlns:xlink="http://www.w3.org/1999/xlink" x="0px" y="0px"
	 viewBox="0 0 32 32" style="enable-background:new 0 0 32 32;" xml:space="preserve">
<g id="XMLID_2521_">
	<path id="XMLID_358_" d="M10.1,13.2c-0.5,0-1,0.5-1,1v8c0,0.5,0.5,1,1,1c0.6,0,1-0.5,1-1v-8C11.1,13.6,10.7,13.2,10.1,13.2z"/>
</g>
<g id="XMLID_2520_">
	<path id="XMLID_357_" d="M15.1,9.2c-0.5,0-1,0.5-1,1v12c0,0.5,0.5,1,1,1c0.6,0,1-0.5,1-1v-12C16.1,9.6,15.7,9.2,15.1,9.2z"/>
</g>
<g id="XMLID_2519_">
	<path id="XMLID_356_" d="M20.1,16.2c-0.5,0-1,0.5-1,1v5c0,0.5,0.5,1,1,1c0.6,0,1-0.5,1-1v-5C21.1,16.6,20.7,16.2,20.1,16.2z"/>
</g>
<g id="XMLID_2518_">
	<path id="XMLID_355_" d="M25.1,11.2c-0.5,0-1,0.5-1,1v10c0,0.5,0.5,1,1,1c0.6,0,1-0.5,1-1v-10C26.1,11.6,25.7,11.2,25.1,11.2z"/>
</g>
<g id="XMLID_2517_">
	<path id="XMLID_354_" d="M27.1,26.2l-21,0v-21c0-0.6-0.4-1-1-1s-1,0.4-1,1v21c0,1.1,0.9,2,2,2h21c0.6,0,1-0.4,1-1
		S27.7,26.2,27.1,26.2z"/>
</g>
</svg>
