<?xml version="1.0" encoding="utf-8"?>
<!-- Generator: Adobe Illustrator 19.0.0, SVG Export Plug-In . SVG Version: 6.00 Build 0)  -->
<svg version="1.1" id="图层_1" xmlns="http://www.w3.org/2000/svg" xmlns:xlink="http://www.w3.org/1999/xlink" x="0px" y="0px"
	 viewBox="0 0 32 32" style="enable-background:new 0 0 32 32;" xml:space="preserve">
<g id="XMLID_401_">
	<path id="XMLID_179_" d="M29.7,13.3c-0.4-0.4-1-0.4-1.4,0L15.9,25.9c-2.7,2.7-7.2,2.7-9.9,0c-2.7-2.7-2.7-7.2,0-9.9L16.3,5.3
		c0.8-0.9,2-1.3,3.2-1.3s2.3,0.5,3.2,1.3c0.9,0.9,1.3,2,1.3,3.2s-0.5,2.3-1.3,3.2L12.4,22.4c-0.8,0.8-2.1,0.8-2.8,0
		C9.2,22,9,21.5,9,21s0.2-1,0.6-1.4l10.1-9.9c0.4-0.4,0.4-1,0-1.4c-0.4-0.4-1-0.4-1.4,0L8.2,18.2C7.4,18.9,7,19.9,7,21
		s0.4,2.1,1.2,2.8c1.5,1.5,4.1,1.5,5.7,0l10.3-10.7c1.2-1.2,1.9-2.9,1.9-4.6s-0.7-3.4-1.9-4.6S21.2,2,19.5,2s-3.4,0.7-4.6,1.9
		L4.6,14.6c-3.5,3.5-3.5,9.2,0,12.7C6.4,29.1,8.7,30,11,30c2.3,0,4.6-0.9,6.4-2.6l12.3-12.7C30.1,14.3,30.1,13.7,29.7,13.3z"/>
</g>
</svg>
