<?xml version="1.0" encoding="utf-8"?>
<!-- Generator: Adobe Illustrator 19.0.0, SVG Export Plug-In . SVG Version: 6.00 Build 0)  -->
<svg version="1.1" id="图层_1" xmlns="http://www.w3.org/2000/svg" xmlns:xlink="http://www.w3.org/1999/xlink" x="0px" y="0px"
	 viewBox="0 0 32 32" style="enable-background:new 0 0 32 32;" xml:space="preserve">
<g id="XMLID_2961_">
	<path id="XMLID_101_" d="M16,2C8.3,2,2,8.3,2,16s6.3,14,14,14s14-6.3,14-14S23.7,2,16,2z M16,28C9.4,28,4,22.6,4,16S9.4,4,16,4
		s12,5.4,12,12S22.6,28,16,28z"/>
</g>
<g id="XMLID_2945_">
	<path id="XMLID_50_" d="M21.7,20.3L17,15.6V7c0-0.6-0.4-1-1-1s-1,0.4-1,1v9c0,0.3,0.1,0.5,0.3,0.7l5,5c0.2,0.2,0.5,0.3,0.7,0.3
		s0.5-0.1,0.7-0.3C22.1,21.3,22.1,20.7,21.7,20.3z"/>
</g>
</svg>
