<?xml version="1.0" encoding="utf-8"?>
<!-- Generator: Adobe Illustrator 19.0.0, SVG Export Plug-In . SVG Version: 6.00 Build 0)  -->
<svg version="1.1" id="图层_1" xmlns="http://www.w3.org/2000/svg" xmlns:xlink="http://www.w3.org/1999/xlink" x="0px" y="0px"
	 viewBox="0 0 32 32" style="enable-background:new 0 0 32 32;" xml:space="preserve">
<g id="XMLID_1_">
	<g id="XMLID_42_">
		<path id="XMLID_43_" d="M16,2C8.3,2,2,8.3,2,16s6.3,14,14,14s14-6.3,14-14S23.7,2,16,2z M21.7,21.7C21.5,21.9,21.3,22,21,22
			s-0.5-0.1-0.7-0.3l-5-5C15.1,16.5,15,16.3,15,16V7c0-0.6,0.4-1,1-1s1,0.4,1,1v8.6l4.7,4.7C22.1,20.7,22.1,21.3,21.7,21.7z"/>
	</g>
</g>
</svg>
