<?xml version="1.0" encoding="utf-8"?>
<!-- Generator: Adobe Illustrator 19.0.0, SVG Export Plug-In . SVG Version: 6.00 Build 0)  -->
<svg version="1.1" id="图层_1" xmlns="http://www.w3.org/2000/svg" xmlns:xlink="http://www.w3.org/1999/xlink" x="0px" y="0px"
	 viewBox="0 0 32 32" style="enable-background:new 0 0 32 32;" xml:space="preserve">
<g id="XMLID_570_">
	<path id="XMLID_858_" d="M7,23c-0.3,0-0.6-0.2-0.8-0.4l-4-6c-0.2-0.3-0.2-0.8,0-1.1l4-6C6.5,9,7.1,8.9,7.6,9.2
		c0.5,0.3,0.6,0.9,0.3,1.4L4.2,16l3.6,5.4c0.3,0.5,0.2,1.1-0.3,1.4C7.4,22.9,7.2,23,7,23z"/>
</g>
<g id="XMLID_569_">
	<path id="XMLID_857_" d="M25,23c-0.2,0-0.4-0.1-0.6-0.2c-0.5-0.3-0.6-0.9-0.3-1.4l3.6-5.4l-3.6-5.4c-0.3-0.5-0.2-1.1,0.3-1.4
		c0.5-0.3,1.1-0.2,1.4,0.3l4,6c0.2,0.3,0.2,0.8,0,1.1l-4,6C25.6,22.8,25.3,23,25,23z"/>
</g>
<g id="XMLID_568_">
	<path id="XMLID_856_" d="M9,28c-0.2,0-0.4-0.1-0.5-0.2c-0.5-0.3-0.6-0.9-0.3-1.4l14-22c0.3-0.5,0.9-0.6,1.4-0.3
		c0.5,0.3,0.6,0.9,0.3,1.4l-14,22C9.7,27.8,9.3,28,9,28z"/>
</g>
</svg>
