<?xml version="1.0" encoding="utf-8"?>
<!-- Generator: Adobe Illustrator 19.0.0, SVG Export Plug-In . SVG Version: 6.00 Build 0)  -->
<svg version="1.1" id="图层_1" xmlns="http://www.w3.org/2000/svg" xmlns:xlink="http://www.w3.org/1999/xlink" x="0px" y="0px"
	 viewBox="0 0 32 32" style="enable-background:new 0 0 32 32;" xml:space="preserve">
<g id="XMLID_1_">
	<path id="XMLID_3_" d="M28,3H4C2.9,3,2,3.9,2,5v16c0,1.1,0.9,2,2,2h11v4h-5c-0.6,0-1,0.4-1,1s0.4,1,1,1h12c0.6,0,1-0.4,1-1
		s-0.4-1-1-1h-5v-4h11c1.1,0,2-0.9,2-2V5C30,3.9,29.1,3,28,3z M28,21H4V5h24V21z"/>
</g>
</svg>
