<?xml version="1.0" encoding="utf-8"?>
<!-- Generator: Adobe Illustrator 19.0.0, SVG Export Plug-In . SVG Version: 6.00 Build 0)  -->
<svg version="1.1" id="图层_1" xmlns="http://www.w3.org/2000/svg" xmlns:xlink="http://www.w3.org/1999/xlink" x="0px" y="0px"
	 viewBox="0 0 32 32" style="enable-background:new 0 0 32 32;" xml:space="preserve">
<g id="XMLID_1_">
	<path id="XMLID_5_" d="M29,22h-5V9c0-0.6-0.4-1-1-1H10V3c0-0.6-0.4-1-1-1S8,2.4,8,3v5H3C2.4,8,2,8.4,2,9s0.4,1,1,1h5v13
		c0,0.6,0.4,1,1,1h13v5c0,0.6,0.4,1,1,1s1-0.4,1-1v-5h5c0.6,0,1-0.4,1-1S29.6,22,29,22z M10,22V10h12v12H10z"/>
</g>
</svg>
