<?xml version="1.0" encoding="utf-8"?>
<!-- Generator: Adobe Illustrator 19.0.0, SVG Export Plug-In . SVG Version: 6.00 Build 0)  -->
<svg version="1.1" id="图层_1" xmlns="http://www.w3.org/2000/svg" xmlns:xlink="http://www.w3.org/1999/xlink" x="0px" y="0px"
	 viewBox="0 0 32 32" style="enable-background:new 0 0 32 32;" xml:space="preserve">
<g id="XMLID_597_">
	<path id="XMLID_598_" d="M16,2c5,0,9.5,2.6,12,6.8V8c0-0.6,0.4-1,1-1s1,0.4,1,1v4c0,0.6-0.4,1-1,1h-4c-0.6,0-1-0.4-1-1s0.4-1,1-1
		h1.9c-2-4.3-6.2-7-10.9-7C9.4,4,4,9.4,4,16s5.4,12,12,12c4.8,0,9.2-2.9,11-7.3c0.2-0.5,0.8-0.7,1.3-0.5c0.5,0.2,0.7,0.8,0.5,1.3
		C26.7,26.7,21.6,30,16,30C8.3,30,2,23.7,2,16S8.3,2,16,2z"/>
</g>
</svg>
