<?xml version="1.0" encoding="utf-8"?>
<!-- Generator: Adobe Illustrator 19.0.0, SVG Export Plug-In . SVG Version: 6.00 Build 0)  -->
<svg version="1.1" id="图层_1" xmlns="http://www.w3.org/2000/svg" xmlns:xlink="http://www.w3.org/1999/xlink" x="0px" y="0px"
	 viewBox="0 0 32 32" style="enable-background:new 0 0 32 32;" xml:space="preserve">
<g id="XMLID_1989_">
	<g id="XMLID_2714_">
		<g id="XMLID_593_">
			<path id="XMLID_17_" d="M16,4c6.6,0,12,5.4,12,12s-5.4,12-12,12S4,22.6,4,16S9.4,4,16,4 M16,2C8.3,2,2,8.3,2,16s6.3,14,14,14
				s14-6.3,14-14S23.7,2,16,2L16,2z"/>
		</g>
	</g>
</g>
<g id="XMLID_1988_">
	<g id="XMLID_2017_">
		<path id="XMLID_16_" d="M16,20.3c-1.1,0-2.2-0.4-3-1.3c-1.7-1.7-1.7-4.4,0-6.1c1.4-1.4,7.5-3.5,8.7-3.9c0.4-0.1,0.8,0,1,0.2
			c0.3,0.3,0.4,0.7,0.2,1c-0.4,1.2-2.5,7.3-3.9,8.7l0,0C18.2,19.9,17.1,20.3,16,20.3z M20.4,11.6c-2.6,0.9-5.4,2.1-6,2.7
			c-0.9,0.9-0.9,2.3,0,3.2c0.9,0.9,2.3,0.9,3.2,0C18.2,17,19.4,14.2,20.4,11.6z"/>
	</g>
</g>
</svg>
