<?xml version="1.0" encoding="utf-8"?>
<!-- Generator: Adobe Illustrator 19.0.0, SVG Export Plug-In . SVG Version: 6.00 Build 0)  -->
<svg version="1.1" id="图层_1" xmlns="http://www.w3.org/2000/svg" xmlns:xlink="http://www.w3.org/1999/xlink" x="0px" y="0px"
	 viewBox="0 0 32 32" style="enable-background:new 0 0 32 32;" xml:space="preserve">
<g id="XMLID_98_">
	<path id="XMLID_176_" d="M27,6h-4V4c0-1.1-0.9-2-2-2H11C9.9,2,9,2.9,9,4v2H5C4.4,6,4,6.4,4,7s0.4,1,1,1h1v20c0,1.1,0.9,2,2,2h16
		c1.1,0,2-0.9,2-2V8h1c0.6,0,1-0.4,1-1S27.6,6,27,6z M11,4h10l0,2H11V4z M24,28H8V8h3h10h3L24,28z"/>
	<path id="XMLID_175_" d="M11,11c-0.6,0-1,0.4-1,1v12c0,0.6,0.4,1,1,1s1-0.4,1-1V12C12,11.4,11.6,11,11,11z"/>
	<path id="XMLID_174_" d="M16,11c-0.6,0-1,0.4-1,1v12c0,0.6,0.4,1,1,1s1-0.4,1-1V12C17,11.4,16.6,11,16,11z"/>
	<path id="XMLID_107_" d="M20,12v12c0,0.6,0.4,1,1,1s1-0.4,1-1V12c0-0.6-0.4-1-1-1S20,11.4,20,12z"/>
</g>
</svg>
