<?xml version="1.0" encoding="utf-8"?>
<!-- Generator: Adobe Illustrator 19.0.0, SVG Export Plug-In . SVG Version: 6.00 Build 0)  -->
<svg version="1.1" id="图层_1" xmlns="http://www.w3.org/2000/svg" xmlns:xlink="http://www.w3.org/1999/xlink" x="0px" y="0px"
	 viewBox="0 0 32 32" style="enable-background:new 0 0 32 32;" xml:space="preserve">
<g id="XMLID_1102_">
	<path id="XMLID_1114_" d="M9,4H3C2.4,4,2,4.4,2,5v4c0,0.6,0.4,1,1,1h6c0.6,0,1-0.4,1-1V5C10,4.4,9.6,4,9,4z"/>
	<path id="XMLID_1112_" d="M19,4h-6c-0.6,0-1,0.4-1,1v4c0,0.6,0.4,1,1,1h6c0.6,0,1-0.4,1-1V5C20,4.4,19.6,4,19,4z"/>
	<path id="XMLID_1110_" d="M29,4h-6c-0.6,0-1,0.4-1,1v4c0,0.6,0.4,1,1,1h6c0.6,0,1-0.4,1-1V5C30,4.4,29.6,4,29,4z"/>
	<path id="XMLID_1109_" d="M9,22H3c-0.6,0-1,0.4-1,1v4c0,0.6,0.4,1,1,1h6c0.6,0,1-0.4,1-1v-4C10,22.4,9.6,22,9,22z"/>
	<path id="XMLID_1108_" d="M19,22h-6c-0.6,0-1,0.4-1,1v4c0,0.6,0.4,1,1,1h6c0.6,0,1-0.4,1-1v-4C20,22.4,19.6,22,19,22z"/>
	<path id="XMLID_1107_" d="M29,22h-6c-0.6,0-1,0.4-1,1v4c0,0.6,0.4,1,1,1h6c0.6,0,1-0.4,1-1v-4C30,22.4,29.6,22,29,22z"/>
	<path id="XMLID_1106_" d="M29,13h-6c-0.6,0-1,0.4-1,1v4c0,0.6,0.4,1,1,1h6c0.6,0,1-0.4,1-1v-4C30,13.4,29.6,13,29,13z"/>
	<path id="XMLID_1105_" d="M19,13h-6c-0.6,0-1,0.4-1,1v4c0,0.6,0.4,1,1,1h6c0.6,0,1-0.4,1-1v-4C20,13.4,19.6,13,19,13z"/>
	<path id="XMLID_1104_" d="M9,13H3c-0.6,0-1,0.4-1,1v4c0,0.6,0.4,1,1,1h6c0.6,0,1-0.4,1-1v-4C10,13.4,9.6,13,9,13z"/>
</g>
</svg>
