<?xml version="1.0" encoding="utf-8"?>
<!-- Generator: Adobe Illustrator 19.0.0, SVG Export Plug-In . SVG Version: 6.00 Build 0)  -->
<svg version="1.1" id="图层_1" xmlns="http://www.w3.org/2000/svg" xmlns:xlink="http://www.w3.org/1999/xlink" x="0px" y="0px"
	 viewBox="0 0 32 32" style="enable-background:new 0 0 32 32;" xml:space="preserve">
<g id="XMLID_773_">
	<g id="XMLID_545_">
		<path id="XMLID_546_" d="M8,6v12c0,1.1-0.9,2-2,2H4c-1.1,0-2-0.9-2-2V6c0-1.1,0.9-2,2-2h2C7.1,4,8,4.9,8,6z M6,18L6,6H4v12H6z"/>
	</g>
	<g id="XMLID_453_">
		<path id="XMLID_455_" d="M26.9,5.5L30,16.2c0.3,0.9,0.1,1.9-0.5,2.6c-0.6,0.8-1.4,1.2-2.4,1.2h-5.7c0.8,1,1.4,2.1,1.8,3.4
			c0.4,1.1,0.2,2.2-0.4,3.1C22.2,27.4,21.1,28,20,28c-1.5,0-2.8-0.9-3.3-2.3c-0.6-1.7-2.1-4.1-6.1-5.8C10.2,19.8,10,19.4,10,19V5
			c0-0.6,0.4-1,1-1h14C25.9,4,26.7,4.6,26.9,5.5z M25,6l0-1L25,6L25,6z M12,18.4c4.2,2,5.9,4.7,6.6,6.7c0.2,0.6,0.8,1,1.4,1
			c0.5,0,0.9-0.2,1.2-0.6c0.3-0.4,0.3-0.9,0.2-1.3c-0.6-1.8-1.6-3.2-3-4.3c-0.3-0.3-0.5-0.7-0.3-1.1c0.1-0.4,0.5-0.7,0.9-0.7h8.1
			c0.3,0,0.6-0.1,0.8-0.4c0.2-0.3,0.2-0.6,0.2-0.9L25,6H12V18.4z"/>
	</g>
</g>
</svg>
