<?xml version="1.0" encoding="utf-8"?>
<!-- Generator: Adobe Illustrator 19.0.0, SVG Export Plug-In . SVG Version: 6.00 Build 0)  -->
<svg version="1.1" id="图层_1" xmlns="http://www.w3.org/2000/svg" xmlns:xlink="http://www.w3.org/1999/xlink" x="0px" y="0px"
	 viewBox="0 0 32 32" style="enable-background:new 0 0 32 32;" xml:space="preserve">
<g id="XMLID_2767_">
	<path id="XMLID_325_" d="M29,16c-0.6,0-1,0.4-1,1v7.9c0,0.1,0,0.1,0,0.1L4,25c0,0,0-0.1,0-0.1V17c0-0.6-0.4-1-1-1s-1,0.4-1,1v7.9
		C2,26,2.9,27,4,27h24c1.1,0,2-1,2-2.1V17C30,16.4,29.6,16,29,16z"/>
</g>
<g id="XMLID_2809_">
	<path id="XMLID_322_" d="M22.7,13.3c-0.4-0.4-1-0.4-1.4,0L17,17.6V6c0-0.6-0.4-1-1-1s-1,0.4-1,1v11.6l-4.3-4.3
		c-0.4-0.4-1-0.4-1.4,0s-0.4,1,0,1.4l6,6c0.1,0.1,0.2,0.2,0.3,0.2C15.7,21,15.9,21,16,21s0.3,0,0.4-0.1c0.1-0.1,0.2-0.1,0.3-0.2l6-6
		C23.1,14.3,23.1,13.7,22.7,13.3z"/>
</g>
</svg>
