<?xml version="1.0" encoding="utf-8"?>
<!-- Generator: Adobe Illustrator 19.0.0, SVG Export Plug-In . SVG Version: 6.00 Build 0)  -->
<svg version="1.1" id="图层_1" xmlns="http://www.w3.org/2000/svg" xmlns:xlink="http://www.w3.org/1999/xlink" x="0px" y="0px"
	 viewBox="0 0 32 32" style="enable-background:new 0 0 32 32;" xml:space="preserve">
<g id="XMLID_102_">
	<path id="XMLID_482_" d="M28.4,3.6c-1-1-2.4-1.6-3.9-1.6s-2.9,0.6-3.9,1.6c-0.4,0.4-0.4,1,0,1.4l6.4,6.4c0.2,0.2,0.5,0.3,0.7,0.3
		s0.5-0.1,0.7-0.3c1-1,1.6-2.4,1.6-3.9S29.4,4.6,28.4,3.6z M27.6,9.2l-4.7-4.7c1.3-0.7,3-0.5,4.1,0.6C28.1,6.1,28.3,7.8,27.6,9.2z"
		/>
	<path id="XMLID_478_" d="M19.7,6.3c-0.4-0.4-1-0.4-1.4,0l-16,16C2.1,22.5,2,22.7,2,23v5c0,1.1,0.9,2,2,2h5c0.3,0,0.5-0.1,0.7-0.3
		l16-16c0.4-0.4,0.4-1,0-1.4L19.7,6.3z M8.6,28L4,28v-4.6L8.6,28L8.6,28z M10,26.6L5.4,22L19,8.4l4.6,4.6L10,26.6z"/>
</g>
</svg>
