<?xml version="1.0" encoding="utf-8"?>
<!-- Generator: Adobe Illustrator 19.0.0, SVG Export Plug-In . SVG Version: 6.00 Build 0)  -->
<svg version="1.1" id="图层_1" xmlns="http://www.w3.org/2000/svg" xmlns:xlink="http://www.w3.org/1999/xlink" x="0px" y="0px"
	 viewBox="0 0 32 32" style="enable-background:new 0 0 32 32;" xml:space="preserve">
<g id="XMLID_12_">
	<path id="XMLID_349_" d="M3,27c-0.1,0-0.2,0-0.2,0C2.3,26.9,2,26.5,2,26c0-0.3-0.2-6.3,5.3-11.7c3.6-3.6,8.6-4.2,10.7-4.3V5
		c0-0.4,0.2-0.8,0.6-0.9s0.8-0.1,1.1,0.2l10,9c0.2,0.2,0.3,0.5,0.3,0.7s-0.1,0.6-0.3,0.7l-10,9c-0.3,0.3-0.7,0.3-1.1,0.2
		C18.2,23.8,18,23.4,18,23v-5c-1.6,0-5,0.3-7.5,1.9c-4.3,2.6-6.6,6.6-6.7,6.6C3.7,26.8,3.4,27,3,27z M18.7,12c-1.2,0-6.5,0.2-10,3.7
		c-2.2,2.2-3.4,4.6-4,6.4c1.2-1.3,2.8-2.8,4.8-4c3.9-2.4,9.3-2.2,9.6-2.1c0.5,0,1,0.5,1,1v3.8l7.5-6.8L20,7.2V11
		c0,0.3-0.1,0.5-0.3,0.7C19.5,11.9,19.2,12,19,12C18.9,12,18.9,12,18.7,12z"/>
</g>
</svg>
