<?xml version="1.0" encoding="utf-8"?>
<!-- Generator: Adobe Illustrator 19.0.0, SVG Export Plug-In . SVG Version: 6.00 Build 0)  -->
<svg version="1.1" id="图层_1" xmlns="http://www.w3.org/2000/svg" xmlns:xlink="http://www.w3.org/1999/xlink" x="0px" y="0px"
	 viewBox="0 0 32 32" style="enable-background:new 0 0 32 32;" xml:space="preserve">
<g>
	<path d="M16,11c-2.8,0-5,2.2-5,5s2.2,5,5,5s5-2.2,5-5S18.8,11,16,11z M16,19c-1.7,0-3-1.3-3-3s1.3-3,3-3s3,1.3,3,3S17.7,19,16,19z"
		/>
	<path d="M29.9,15.5C27.3,11.2,22.7,6,16,6S4.8,11.2,2.1,15.5c-0.2,0.3-0.2,0.7,0,1C4.8,20.8,9.3,26,16,26c5.8,0,11.7-4,14-9.6
		C30.1,16.1,30.1,15.8,29.9,15.5z M16,24c-5.5,0-9.4-4.2-11.8-8c2.4-3.8,6.3-8,11.8-8c5.6,0,9.5,4.3,11.9,8.1
		C25.8,20.6,20.8,24,16,24z"/>
</g>
</svg>
