<?xml version="1.0" encoding="utf-8"?>
<!-- Generator: Adobe Illustrator 19.0.0, SVG Export Plug-In . SVG Version: 6.00 Build 0)  -->
<svg version="1.1" id="图层_1" xmlns="http://www.w3.org/2000/svg" xmlns:xlink="http://www.w3.org/1999/xlink" x="0px" y="0px"
	 viewBox="0 0 32 32" style="enable-background:new 0 0 32 32;" xml:space="preserve">
<g id="XMLID_727_">
	<path id="XMLID_728_" d="M24,29.2c-0.2,0-0.3,0-0.5-0.1l-7.6-4l-7.6,4c-0.3,0.2-0.7,0.1-1.1-0.1c-0.3-0.2-0.5-0.6-0.4-1l1.4-8.4
		l-6.1-6c-0.3-0.3-0.4-0.7-0.3-1s0.4-0.6,0.8-0.7l8.4-1.2l3.8-7.7c0.3-0.7,1.5-0.7,1.8,0l3.8,7.7l8.4,1.2c0.4,0.1,0.7,0.3,0.8,0.7
		s0,0.8-0.3,1l-6.1,6l1.4,8.4c0.1,0.4-0.1,0.8-0.4,1C24.4,29.2,24.2,29.2,24,29.2z"/>
</g>
</svg>
