<?xml version="1.0" encoding="utf-8"?>
<!-- Generator: Adobe Illustrator 19.0.0, SVG Export Plug-In . SVG Version: 6.00 Build 0)  -->
<svg version="1.1" id="图层_1" xmlns="http://www.w3.org/2000/svg" xmlns:xlink="http://www.w3.org/1999/xlink" x="0px" y="0px"
	 viewBox="0 0 32 32" style="enable-background:new 0 0 32 32;" xml:space="preserve">
<g id="XMLID_1_">
	<path id="XMLID_10_" d="M21,15H11c-0.6,0-1,0.4-1,1s0.4,1,1,1h10c0.6,0,1-0.4,1-1S21.6,15,21,15z"/>
	<path id="XMLID_9_" d="M21,21H11c-0.6,0-1,0.4-1,1s0.4,1,1,1h10c0.6,0,1-0.4,1-1S21.6,21,21,21z"/>
	<path id="XMLID_8_" d="M11,11h3c0.6,0,1-0.4,1-1s-0.4-1-1-1h-3c-0.6,0-1,0.4-1,1S10.4,11,11,11z"/>
	<path id="XMLID_4_" d="M19,2H8C6.9,2,6,2.9,6,4v24c0,1.1,0.9,2,2,2h2h12h2c1.1,0,2-0.9,2-2V9L19,2z M23.2,9H19V4.8L23.2,9z M22,28
		H10H8V4h9v6c0,0.6,0.4,1,1,1h6v17H22z"/>
</g>
</svg>
