<?xml version="1.0" encoding="utf-8"?>
<!-- Generator: Adobe Illustrator 19.0.0, SVG Export Plug-In . SVG Version: 6.00 Build 0)  -->
<svg version="1.1" id="图层_1" xmlns="http://www.w3.org/2000/svg" xmlns:xlink="http://www.w3.org/1999/xlink" x="0px" y="0px"
	 viewBox="0 0 32 32" style="enable-background:new 0 0 32 32;" xml:space="preserve">
<g id="XMLID_1031_">
	<path id="XMLID_1032_" d="M29.9,2.6C29.8,2.2,29.4,2,29,2H3C2.6,2,2.2,2.2,2.1,2.6C1.9,3,2,3.4,2.3,3.7l9.7,9.7V29
		c0,0.4,0.2,0.8,0.6,0.9C12.7,30,12.9,30,13,30c0.3,0,0.5-0.1,0.7-0.3l6-6c0.2-0.2,0.3-0.4,0.3-0.7v-9.6l9.7-9.7
		C30,3.4,30.1,3,29.9,2.6z"/>
</g>
</svg>
