<?xml version="1.0" encoding="utf-8"?>
<!-- Generator: Adobe Illustrator 19.0.0, SVG Export Plug-In . SVG Version: 6.00 Build 0)  -->
<svg version="1.1" id="图层_1" xmlns="http://www.w3.org/2000/svg" xmlns:xlink="http://www.w3.org/1999/xlink" x="0px" y="0px"
	 viewBox="0 0 32 32" style="enable-background:new 0 0 32 32;" xml:space="preserve">
<g id="XMLID_1111_">
	<path id="XMLID_1113_" d="M25.5,3.3c-0.3-0.2-0.7-0.2-1,0c0,0-1.8,0.9-4.5,0.9c-1.3,0-2.5-0.5-3.7-0.9C15,2.7,13.7,2.1,12,2.1
		c-3.2,0-5.4,1.1-5.4,1.1C6.2,3.4,6,3.8,6,4.1v25c0,0.6,0.4,1,1,1s1-0.4,1-1V16.8c0.7-0.3,2.1-0.7,4-0.7c1.3,0,2.4,0.5,3.6,0.9
		c1.3,0.5,2.7,1.1,4.4,1.1c3.2,0,5.4-1.1,5.4-1.1c0.3-0.2,0.6-0.5,0.6-0.9v-12C26,3.8,25.8,3.5,25.5,3.3z"/>
</g>
</svg>
