<?xml version="1.0" encoding="utf-8"?>
<!-- Generator: Adobe Illustrator 19.0.0, SVG Export Plug-In . SVG Version: 6.00 Build 0)  -->
<svg version="1.1" id="图层_1" xmlns="http://www.w3.org/2000/svg" xmlns:xlink="http://www.w3.org/1999/xlink" x="0px" y="0px"
	 viewBox="0 0 32 32" style="enable-background:new 0 0 32 32;" xml:space="preserve">
<g id="XMLID_622_">
	<path id="XMLID_1131_" d="M7,30c-0.6,0-1-0.4-1-1V16c0,0,0,0,0,0V4c0-0.4,0.2-0.7,0.6-0.9C6.6,3.1,8.8,2,12,2c1.7,0,3,0.5,4.3,1.1
		C17.5,3.5,18.7,4,20,4c2.8,0,4.5-0.9,4.5-0.9c0.3-0.2,0.7-0.1,1,0S26,3.7,26,4v12c0,0.4-0.2,0.7-0.6,0.9c-0.1,0-2.2,1.1-5.4,1.1
		c-1.7,0-3.1-0.5-4.4-1.1C14.4,16.5,13.3,16,12,16c-1.9,0-3.3,0.4-4,0.7V29C8,29.6,7.6,30,7,30z M12,14c1.7,0,3.1,0.5,4.4,1.1
		c1.2,0.5,2.3,0.9,3.6,0.9c1.8,0,3.3-0.4,4-0.7V5.4C23,5.7,21.7,6,20,6c-1.7,0-3.1-0.5-4.4-1.1C14.4,4.4,13.3,4,12,4
		c-1.8,0-3.3,0.4-4,0.7v9.9C9,14.3,10.3,14,12,14z"/>
</g>
</svg>
