<?xml version="1.0" encoding="utf-8" ?>
<svg version="1.1" xmlns="http://www.w3.org/2000/svg" xmlns:xlink="http://www.w3.org/1999/xlink" x="0px" y="0px"
     viewBox="0 0 32 32" style="enable-background:new 0 0 32 32;" xml:space="preserve">
<g>
<path d="M28,7H14.4l-1.7-1.7C12.5,5.1,12.3,5,12,5H4C2.9,5,2,5.9,2,7v18c0,1.1,0.9,2,2,2h24c1.1,0,2-0.9,2-2V9
        C30,7.9,29.1,7,28,7z" class="ali-x-svg-fill" />
<path d="M28,7H14.4l-1.7-1.7C12.5,5.1,12.3,5,12,5H4C2.9,5,2,5.9,2,7v18c0,1.1,0.9,2,2,2h24c1.1,0,2-0.9,2-2V9
        C30,7.9,29.1,7,28,7z M4,25V7h7.6l1.7,1.7C13.5,8.9,13.7,9,14,9h14l0,16H4z" class="ali-x-svg-stroke" />
</g>
</svg>
