<?xml version="1.0" encoding="utf-8"?>
<!-- Generator: Adobe Illustrator 19.0.0, SVG Export Plug-In . SVG Version: 6.00 Build 0)  -->
<svg version="1.1" id="图层_1" xmlns="http://www.w3.org/2000/svg" xmlns:xlink="http://www.w3.org/1999/xlink" x="0px" y="0px"
	 viewBox="0 0 32 32" style="enable-background:new 0 0 32 32;" xml:space="preserve">
<g id="XMLID_855_">
	<path id="XMLID_1086_" d="M24,2H8C6.9,2,6,2.9,6,4v24c0,1.1,0.9,2,2,2h16c1.1,0,2-0.9,2-2V4C26,2.9,25.1,2,24,2z M24,28H8V4h16V28z
		"/>
	<circle id="XMLID_1085_" cx="18.5" cy="23.5" r="1.5"/>
	<circle id="XMLID_1084_" cx="21.5" cy="20.5" r="1.5"/>
	<path id="XMLID_1083_" d="M10,23h1v1c0,0.6,0.4,1,1,1s1-0.4,1-1v-1h1c0.6,0,1-0.4,1-1s-0.4-1-1-1h-1v-1c0-0.6-0.4-1-1-1s-1,0.4-1,1
		v1h-1c-0.6,0-1,0.4-1,1S9.4,23,10,23z"/>
	<path id="XMLID_1049_" d="M10,16h12c0.6,0,1-0.4,1-1V6c0-0.6-0.4-1-1-1H10C9.4,5,9,5.4,9,6v9C9,15.6,9.4,16,10,16z M11,7h10v7H11V7
		z"/>
</g>
</svg>
