<?xml version="1.0" encoding="utf-8"?>
<!-- Generator: Adobe Illustrator 19.0.0, SVG Export Plug-In . SVG Version: 6.00 Build 0)  -->
<svg version="1.1" id="图层_1" xmlns="http://www.w3.org/2000/svg" xmlns:xlink="http://www.w3.org/1999/xlink" x="0px" y="0px"
	 viewBox="0 0 32 32" style="enable-background:new 0 0 32 32;" xml:space="preserve">
<g id="XMLID_899_">
	<path id="XMLID_985_" d="M16,28c-0.2,0-0.5-0.1-0.7-0.3l-9.5-9l-1.6-1.6C2.8,15.7,2,13.8,2,11.7s0.8-4,2.3-5.4S7.6,4,9.7,4
		s4,0.8,5.4,2.3L16,7.2l0.9-0.9C18.3,4.8,20.2,4,22.3,4s4,0.8,5.4,2.3c3,3,3,7.9,0,10.9l-1.6,1.6l-9.4,9C16.5,27.9,16.2,28,16,28z"
		/>
</g>
</svg>
