<?xml version="1.0" encoding="utf-8"?>
<!-- Generator: Adobe Illustrator 19.0.0, SVG Export Plug-In . SVG Version: 6.00 Build 0)  -->
<svg version="1.1" id="图层_1" xmlns="http://www.w3.org/2000/svg" xmlns:xlink="http://www.w3.org/1999/xlink" x="0px" y="0px"
	 viewBox="0 0 32 32" style="enable-background:new 0 0 32 32;" xml:space="preserve">
<g id="XMLID_788_">
	<path id="XMLID_4_" d="M16,28c-0.2,0-0.5-0.1-0.7-0.3l-9.5-9l-1.6-1.6C2.8,15.7,2,13.8,2,11.7s0.8-4,2.3-5.4S7.6,4,9.7,4
		s4,0.8,5.4,2.3L16,7.2l0.9-0.9c3-3,7.9-3,10.9,0c3,3,3,7.9,0,10.9l-1.6,1.6l-9.4,9C16.5,27.9,16.3,28,16,28z M9.7,6
		c-1.5,0-2.9,0.6-4,1.7C4.6,8.8,4,10.2,4,11.7s0.6,2.9,1.7,4l1.6,1.6l8.8,8.3l8.7-8.3l1.6-1.6c2.2-2.2,2.2-5.8,0-8
		c-2.2-2.2-5.8-2.2-8,0l-1.6,1.6c-0.4,0.4-1,0.4-1.4,0l-1.6-1.6C12.6,6.6,11.2,6,9.7,6z"/>
</g>
</svg>
