<?xml version="1.0" encoding="utf-8"?>
<!-- Generator: Adobe Illustrator 19.0.0, SVG Export Plug-In . SVG Version: 6.00 Build 0)  -->
<svg version="1.1" id="图层_1" xmlns="http://www.w3.org/2000/svg" xmlns:xlink="http://www.w3.org/1999/xlink" x="0px" y="0px"
	 viewBox="0 0 32 32" style="enable-background:new 0 0 32 32;" xml:space="preserve">
<g id="XMLID_324_">
	<path id="XMLID_456_" d="M29.9,15.5c-1.3-2.2-3.1-4.6-5.5-6.4l3.3-3.3c0.4-0.4,0.4-1,0-1.4s-1-0.4-1.4,0l-3.6,3.6
		C20.8,6.7,18.5,6,16,6C9.3,6,4.8,11.2,2.1,15.5c-0.2,0.3-0.2,0.7,0,1c1.3,2.2,3.2,4.6,5.5,6.4l-3.4,3.4c-0.4,0.4-0.4,1,0,1.4
		C4.5,27.9,4.7,28,5,28s0.5-0.1,0.7-0.3l3.6-3.6c1.9,1.2,4.2,1.9,6.7,1.9c5.8,0,11.7-4,13.9-9.6C30,16.1,30,15.8,29.9,15.5z M4.2,16
		c2.4-3.8,6.3-8,11.8-8c1.9,0,3.7,0.5,5.2,1.4l-2.5,2.5C18,11.3,17,11,16,11c-2.8,0-5,2.2-5,5c0,1,0.3,2,0.8,2.8l-2.8,2.8
		C7,20,5.4,17.9,4.2,16z M19,16c0,1.7-1.3,3-3,3c-0.5,0-0.9-0.1-1.3-0.3l4-4C18.9,15.1,19,15.5,19,16z M13,16c0-1.7,1.3-3,3-3
		c0.5,0,0.9,0.1,1.3,0.3l-4,4C13.1,16.9,13,16.5,13,16z M16,24c-1.9,0-3.7-0.5-5.2-1.4l2.5-2.5C14,20.7,15,21,16,21c2.8,0,5-2.2,5-5
		c0-1-0.3-2-0.8-2.8l2.8-2.8c2.1,1.6,3.7,3.7,4.9,5.6C25.8,20.6,20.8,24,16,24z"/>
</g>
</svg>
