<?xml version="1.0" encoding="utf-8"?>
<!-- Generator: Adobe Illustrator 19.0.0, SVG Export Plug-In . SVG Version: 6.00 Build 0)  -->
<svg version="1.1" id="图层_1" xmlns="http://www.w3.org/2000/svg" xmlns:xlink="http://www.w3.org/1999/xlink" x="0px" y="0px"
	 viewBox="0 0 32 32" style="enable-background:new 0 0 32 32;" xml:space="preserve">
<g id="XMLID_1_">
	<path id="XMLID_7_" d="M29.7,15.3l-4-4c0,0,0,0,0,0l-9-9c-0.4-0.4-1-0.4-1.4,0l-9,9c0,0,0,0,0,0l-4,4c-0.4,0.4-0.4,1,0,1.4
		s1,0.4,1.4,0L6,14.4V28c0,1.1,0.9,2,2,2h16c1.1,0,2-0.9,2-2V14.4l2.3,2.3c0.2,0.2,0.5,0.3,0.7,0.3s0.5-0.1,0.7-0.3
		C30.1,16.3,30.1,15.7,29.7,15.3z M24,28H8V12.4l8-8l8,8V28z"/>
	<path id="XMLID_4_" d="M15.7,14.3c-1.3-1.3-3.5-1.3-4.8,0c-1.3,1.3-1.3,3.5,0,4.8c1.4,1.4,4.4,4.6,4.4,4.6c0.2,0.2,0.5,0.3,0.7,0.3
		s0.5-0.1,0.7-0.3c0,0,3-3.2,4.4-4.6c1.3-1.3,1.3-3.5,0-4.8c-1.3-1.3-3.5-1.3-4.8,0L16,14.6L15.7,14.3z M16.7,16.7l1-1
		c0.6-0.6,1.4-0.6,2,0c0.5,0.5,0.5,1.4,0,2c-0.9,1-2.7,2.8-3.7,3.8c-1-1-2.8-2.9-3.7-3.8c-0.5-0.6-0.6-1.5,0-2
		c0.3-0.3,0.6-0.4,1-0.4s0.7,0.1,1,0.4l1,1C15.7,17.1,16.3,17.1,16.7,16.7z"/>
</g>
</svg>
