<?xml version="1.0" encoding="utf-8"?>
<!-- Generator: Adobe Illustrator 19.0.0, SVG Export Plug-In . SVG Version: 6.00 Build 0)  -->
<svg version="1.1" id="图层_1" xmlns="http://www.w3.org/2000/svg" xmlns:xlink="http://www.w3.org/1999/xlink" x="0px" y="0px"
	 viewBox="0 0 32 32" style="enable-background:new 0 0 32 32;" xml:space="preserve">
<g id="XMLID_714_">
	<path id="XMLID_720_" d="M28,10h-1c-0.6,0-1,0.4-1,1s0.4,1,1,1h1v12H4V12h1c0.6,0,1-0.4,1-1s-0.4-1-1-1H4c-1.1,0-2,0.9-2,2v12
		c0,1.1,0.9,2,2,2h24c1.1,0,2-0.9,2-2V12C30,10.9,29.1,10,28,10z"/>
	<path id="XMLID_718_" d="M8,19c-0.6,0-1,0.4-1,1s0.4,1,1,1h4c0.6,0,1-0.4,1-1s-0.4-1-1-1h-1V8h1c0.6,0,1-0.4,1-1s-0.4-1-1-1H8
		C7.4,6,7,6.4,7,7s0.4,1,1,1h1v11H8z"/>
	<path id="XMLID_715_" d="M15,20c0,0.6,0.4,1,1,1h2c1.8,0,3.3-0.7,4.6-2.2c2.5-2.9,2.5-7.7,0-10.6C21.3,6.7,19.8,6,18,6h-2
		c-0.6,0-1,0.4-1,1s0.4,1,1,1v11C15.4,19,15,19.4,15,20z M18,8c1.2,0,2.2,0.5,3.1,1.5c1.9,2.2,1.9,5.8,0,8c-0.9,1-1.9,1.5-3.1,1.5V8
		z"/>
</g>
</svg>
