<?xml version="1.0" encoding="utf-8"?>
<!-- Generator: Adobe Illustrator 19.0.0, SVG Export Plug-In . SVG Version: 6.00 Build 0)  -->
<svg version="1.1" id="图层_1" xmlns="http://www.w3.org/2000/svg" xmlns:xlink="http://www.w3.org/1999/xlink" x="0px" y="0px"
	 viewBox="0 0 32 32" style="enable-background:new 0 0 32 32;" xml:space="preserve">
<g id="XMLID_2973_">
	<path id="XMLID_184_" d="M28,5H4C2.9,5,2,5.9,2,7v16c0,1.1,0.9,2,2,2h24c1.1,0,2-0.9,2-2V7C30,5.9,29.1,5,28,5z M4,23V7h24l0,16H4z
		"/>
</g>
<g id="XMLID_2972_">
	<path id="XMLID_49_" d="M29,26H3c-0.6,0-1,0.4-1,1s0.4,1,1,1h26c0.6,0,1-0.4,1-1S29.6,26,29,26z"/>
</g>
</svg>
