<?xml version="1.0" encoding="utf-8"?>
<!-- Generator: Adobe Illustrator 19.0.0, SVG Export Plug-In . SVG Version: 6.00 Build 0)  -->
<svg version="1.1" id="图层_1" xmlns="http://www.w3.org/2000/svg" xmlns:xlink="http://www.w3.org/1999/xlink" x="0px" y="0px"
	 viewBox="0 0 32 32" style="enable-background:new 0 0 32 32;" xml:space="preserve">
<g id="XMLID_574_">
	<path id="XMLID_584_" d="M6,28H4c-1.1,0-2-0.9-2-2V14c0-1.1,0.9-2,2-2h2c1.1,0,2,0.9,2,2v12C8,27.1,7.1,28,6,28z M4,14v12h2l0-12H4
		z"/>
</g>
<g id="XMLID_547_">
	<path id="XMLID_549_" d="M25,28H11c-0.6,0-1-0.4-1-1V13c0-0.4,0.2-0.8,0.6-0.9c4-1.7,5.5-4.1,6.1-5.8C17.2,4.9,18.5,4,20,4
		c1.1,0,2.2,0.6,2.9,1.5c0.7,0.9,0.8,2.1,0.4,3.1c-0.4,1.3-1.1,2.4-1.8,3.4h5.7c1,0,1.8,0.4,2.4,1.2c0.6,0.8,0.8,1.7,0.5,2.6
		l-3.1,10.7C26.7,27.4,25.9,28,25,28z M25,26v1V26L25,26z M12,26h13l3.1-10.7c0.1-0.3,0-0.6-0.2-0.9c-0.2-0.3-0.5-0.4-0.8-0.4H19
		c-0.4,0-0.8-0.3-0.9-0.7c-0.1-0.4,0-0.9,0.3-1.1c1.4-1,2.4-2.5,3-4.3c0.2-0.4,0.1-0.9-0.2-1.3C20.9,6.2,20.5,6,20,6
		c-0.6,0-1.2,0.4-1.4,1c-0.7,2-2.4,4.7-6.6,6.7V26z"/>
</g>
</svg>
