<?xml version="1.0" encoding="utf-8"?>
<!-- Generator: Adobe Illustrator 19.0.0, SVG Export Plug-In . SVG Version: 6.00 Build 0)  -->
<svg version="1.1" id="图层_1" xmlns="http://www.w3.org/2000/svg" xmlns:xlink="http://www.w3.org/1999/xlink" x="0px" y="0px"
	 viewBox="0 0 32 32" style="enable-background:new 0 0 32 32;" xml:space="preserve">
<g id="XMLID_3702_">
	<path id="XMLID_363_" d="M28.6,3.4c-1.9-1.9-5.1-1.9-7.1,0l-7.3,7.3c-1.9,1.9-1.9,5.1,0,7.1c0.4,0.4,1,0.4,1.4,0s0.4-1,0-1.4
		c-1.2-1.2-1.2-3.1,0-4.2L23,4.8c1.2-1.2,3.1-1.2,4.2,0c1.2,1.2,1.2,3.1,0,4.2l-7.3,7.3c-0.4,0.4-0.4,1,0,1.4
		c0.2,0.2,0.5,0.3,0.7,0.3s0.5-0.1,0.7-0.3l7.3-7.3C30.6,8.5,30.6,5.3,28.6,3.4z"/>
</g>
<g id="XMLID_3701_">
	<path id="XMLID_362_" d="M17.6,14.4c-0.4-0.4-1-0.4-1.4,0s-0.4,1,0,1.4c1.2,1.2,1.2,3.1,0,4.2L9,27.2c-1.2,1.2-3.1,1.2-4.2,0
		c-1.2-1.2-1.2-3.1,0-4.2l7.2-7.2c0.4-0.4,0.4-1,0-1.4s-1-0.4-1.4,0l-7.2,7.2c-1.9,1.9-1.9,5.1,0,7.1c1,1,2.3,1.5,3.5,1.5
		s2.6-0.5,3.5-1.5l7.2-7.2C19.6,19.5,19.6,16.3,17.6,14.4z"/>
</g>
</svg>
