<?xml version="1.0" encoding="utf-8"?>
<!-- Generator: Adobe Illustrator 19.0.0, SVG Export Plug-In . SVG Version: 6.00 Build 0)  -->
<svg version="1.1" id="图层_1" xmlns="http://www.w3.org/2000/svg" xmlns:xlink="http://www.w3.org/1999/xlink" x="0px" y="0px"
	 viewBox="0 0 32 32" style="enable-background:new 0 0 32 32;" xml:space="preserve">
<g id="XMLID_1_">
	<path id="XMLID_5_" d="M24.9,2H17c-0.6,0-1,0.4-1,1s0.4,1,1,1h7.9C25,4,25,4,25,4L25,28c0,0-0.1,0-0.1,0H17c-0.6,0-1,0.4-1,1
		s0.4,1,1,1h7.9c1.2,0,2.1-0.9,2.1-2V4C27,2.9,26,2,24.9,2z"/>
	<path id="XMLID_4_" d="M8.4,17H20c0.6,0,1-0.4,1-1s-0.4-1-1-1H8.4l4.3-4.3c0.4-0.4,0.4-1,0-1.4s-1-0.4-1.4,0l-6,6
		c-0.1,0.1-0.2,0.2-0.2,0.3c-0.1,0.2-0.1,0.5,0,0.8c0.1,0.1,0.1,0.2,0.2,0.3l6,6c0.2,0.2,0.5,0.3,0.7,0.3s0.5-0.1,0.7-0.3
		c0.4-0.4,0.4-1,0-1.4L8.4,17z"/>
</g>
</svg>
