<?xml version="1.0" encoding="utf-8"?>
<!-- Generator: Adobe Illustrator 19.0.0, SVG Export Plug-In . SVG Version: 6.00 Build 0)  -->
<svg version="1.1" id="图层_1" xmlns="http://www.w3.org/2000/svg" xmlns:xlink="http://www.w3.org/1999/xlink" x="0px" y="0px"
	 viewBox="0 0 32 32" style="enable-background:new 0 0 32 32;" xml:space="preserve">
<g id="XMLID_862_">
	<path id="XMLID_912_" d="M29,2H17c-0.6,0-1,0.4-1,1s0.4,1,1,1h9.6l-8.3,8.3C16.6,10.8,14.4,10,12,10C6.5,10,2,14.5,2,20
		s4.5,10,10,10s10-4.5,10-10c0-2.4-0.8-4.6-2.3-6.3L28,5.4V15c0,0.6,0.4,1,1,1s1-0.4,1-1V3C30,2.4,29.6,2,29,2z M12,28
		c-4.4,0-8-3.6-8-8s3.6-8,8-8s8,3.6,8,8S16.4,28,12,28z"/>
</g>
</svg>
