<?xml version="1.0" encoding="utf-8"?>
<!-- Generator: Adobe Illustrator 19.0.0, SVG Export Plug-In . SVG Version: 6.00 Build 0)  -->
<svg version="1.1" id="图层_1" xmlns="http://www.w3.org/2000/svg" xmlns:xlink="http://www.w3.org/1999/xlink" x="0px" y="0px"
	 viewBox="0 0 32 32" style="enable-background:new 0 0 32 32;" xml:space="preserve">
<g id="XMLID_847_">
	<path id="XMLID_848_" d="M18,8H3C2.4,8,2,7.6,2,7s0.4-1,1-1h15c0.6,0,1,0.4,1,1S18.6,8,18,8z"/>
</g>
<g id="XMLID_713_">
	<path id="XMLID_785_" d="M18,17H3c-0.6,0-1-0.4-1-1s0.4-1,1-1h15c0.6,0,1,0.4,1,1S18.6,17,18,17z"/>
</g>
<g id="XMLID_674_">
	<path id="XMLID_675_" d="M29,26H3c-0.6,0-1-0.4-1-1s0.4-1,1-1h26c0.6,0,1,0.4,1,1S29.6,26,29,26z"/>
</g>
<g id="XMLID_672_">
	<path id="XMLID_673_" d="M29,17c0.3,0,0.5-0.1,0.7-0.3c0.4-0.4,0.3-1-0.1-1.4l-4.2-3.8l4.2-3.8c0.4-0.4,0.4-1,0.1-1.4
		c-0.4-0.4-1-0.4-1.4-0.1l-5,4.5c-0.2,0.2-0.3,0.5-0.3,0.7s0.1,0.6,0.3,0.7l5,4.5C28.5,16.9,28.8,17,29,17z"/>
</g>
</svg>
