<?xml version="1.0" encoding="utf-8"?>
<!-- Generator: Adobe Illustrator 19.0.0, SVG Export Plug-In . SVG Version: 6.00 Build 0)  -->
<svg version="1.1" id="图层_1" xmlns="http://www.w3.org/2000/svg" xmlns:xlink="http://www.w3.org/1999/xlink" x="0px" y="0px"
	 viewBox="0 0 32 32" style="enable-background:new 0 0 32 32;" xml:space="preserve">
<g id="XMLID_1033_">
	<circle id="XMLID_521_" cx="9.5" cy="14.5" r="1.5"/>
</g>
<g id="XMLID_1032_">
	<circle id="XMLID_185_" cx="23.5" cy="14.5" r="1.5"/>
</g>
<g id="XMLID_1031_">
	<circle id="XMLID_520_" cx="16.5" cy="14.5" r="1.5"/>
</g>
<path id="XMLID_517_" d="M16,2C8.3,2,2,7.6,2,14.4c0,3.6,1.8,7,4.9,9.4V29c0,0.4,0.2,0.7,0.5,0.9C7.5,30,7.7,30,7.9,30
	c0.2,0,0.4,0,0.5-0.1l5.4-3.3c0.8,0.1,1.5,0.2,2.2,0.2c7.7,0,14-5.6,14-12.4S23.7,2,16,2z M16,24.8c-0.7,0-1.5-0.1-2.3-0.2
	c-0.2,0-0.5,0-0.7,0.1l-4.2,2.5v-4c0-0.3-0.2-0.6-0.4-0.8c-2.8-2-4.4-4.9-4.4-8.1C4,8.7,9.4,4,16,4s12,4.7,12,10.4
	S22.6,24.8,16,24.8z"/>
</svg>
