<?xml version="1.0" encoding="utf-8"?>
<!-- Generator: Adobe Illustrator 19.0.0, SVG Export Plug-In . SVG Version: 6.00 Build 0)  -->
<svg version="1.1" id="图层_1" xmlns="http://www.w3.org/2000/svg" xmlns:xlink="http://www.w3.org/1999/xlink" x="0px" y="0px"
	 viewBox="0 0 32 32" style="enable-background:new 0 0 32 32;" xml:space="preserve">
<g id="XMLID_2167_">
	<path id="XMLID_2171_" d="M16,2C8.3,2,2,7.6,2,14.4c0,3.6,1.8,7,4.9,9.4V29c0,0.4,0.2,0.7,0.5,0.9C7.5,30,7.7,30,7.9,30
		c0.2,0,0.4,0,0.5-0.1l5.4-3.3c0.8,0.1,1.5,0.2,2.2,0.2c7.7,0,14-5.6,14-12.4S23.7,2,16,2z M9.5,16C8.7,16,8,15.3,8,14.5
		S8.7,13,9.5,13s1.5,0.7,1.5,1.5S10.3,16,9.5,16z M16.5,16c-0.8,0-1.5-0.7-1.5-1.5s0.7-1.5,1.5-1.5s1.5,0.7,1.5,1.5S17.3,16,16.5,16
		z M23.5,16c-0.8,0-1.5-0.7-1.5-1.5s0.7-1.5,1.5-1.5s1.5,0.7,1.5,1.5S24.3,16,23.5,16z"/>
</g>
</svg>
