<?xml version="1.0" encoding="utf-8"?>
<!-- Generator: Adobe Illustrator 19.0.0, SVG Export Plug-In . SVG Version: 6.00 Build 0)  -->
<svg version="1.1" id="图层_1" xmlns="http://www.w3.org/2000/svg" xmlns:xlink="http://www.w3.org/1999/xlink" x="0px" y="0px"
	 viewBox="0 0 32 32" style="enable-background:new 0 0 32 32;" xml:space="preserve">
<g id="XMLID_1_">
	<path id="XMLID_16_" d="M28,2H4C2.9,2,2,2.9,2,4v24c0,1.1,0.9,2,2,2h24c1.1,0,2-0.9,2-2V4C30,2.9,29.1,2,28,2z M28,28H4V4h24L28,28
		z"/>
	<path id="XMLID_15_" d="M8,26c0.6,0,1-0.4,1-1V10h5.8c-0.9,6.3-4.2,9.1-4.4,9.2c-0.4,0.3-0.5,1-0.2,1.4c0.2,0.3,0.5,0.4,0.8,0.4
		c0.2,0,0.4-0.1,0.6-0.2c0.1-0.1,2.1-1.7,3.7-5.1l5,5c0.2,0.2,0.5,0.3,0.7,0.3s0.5-0.1,0.7-0.3c0.4-0.4,0.4-1,0-1.4L16,13.6
		c0.3-1.1,0.6-2.3,0.8-3.6H23v14h-1c-0.6,0-1,0.4-1,1s0.4,1,1,1h2c0.6,0,1-0.4,1-1V9c0-0.6-0.4-1-1-1h-7c0-0.3,0-0.7,0-1
		c0-0.6-0.4-1-1-1s-1,0.4-1,1c0,0.3,0,0.7,0,1H8C7.4,8,7,8.4,7,9v16C7,25.6,7.4,26,8,26z"/>
</g>
</svg>
