<?xml version="1.0" encoding="utf-8"?>
<!-- Generator: Adobe Illustrator 19.0.0, SVG Export Plug-In . SVG Version: 6.00 Build 0)  -->
<svg version="1.1" id="图层_1" xmlns="http://www.w3.org/2000/svg" xmlns:xlink="http://www.w3.org/1999/xlink" x="0px" y="0px"
	 viewBox="0 0 32 32" style="enable-background:new 0 0 32 32;" xml:space="preserve">
<g id="XMLID_1_">
	<path id="XMLID_7_" d="M24,5h-1V4c0-0.6-0.4-1-1-1s-1,0.4-1,1v1h-4V4c0-0.6-0.4-1-1-1s-1,0.4-1,1v1h-4V4c0-0.6-0.4-1-1-1S9,3.4,9,4
		v1H8C6.9,5,6,5.9,6,7v20c0,1.1,0.9,2,2,2h16c1.1,0,2-0.9,2-2V7C26,5.9,25.1,5,24,5z M24,27H8V7h16V27z"/>
	<path id="XMLID_6_" d="M21,11H11c-0.6,0-1,0.4-1,1s0.4,1,1,1h10c0.6,0,1-0.4,1-1S21.6,11,21,11z"/>
	<path id="XMLID_5_" d="M21,16H11c-0.6,0-1,0.4-1,1s0.4,1,1,1h10c0.6,0,1-0.4,1-1S21.6,16,21,16z"/>
	<path id="XMLID_4_" d="M21,21H11c-0.6,0-1,0.4-1,1s0.4,1,1,1h10c0.6,0,1-0.4,1-1S21.6,21,21,21z"/>
</g>
</svg>
