<?xml version="1.0" encoding="utf-8"?>
<!-- Generator: Adobe Illustrator 19.0.0, SVG Export Plug-In . SVG Version: 6.00 Build 0)  -->
<svg version="1.1" id="图层_1" xmlns="http://www.w3.org/2000/svg" xmlns:xlink="http://www.w3.org/1999/xlink" x="0px" y="0px"
	 viewBox="0 0 32 32" style="enable-background:new 0 0 32 32;" xml:space="preserve">
<g id="XMLID_1_">
	<path id="XMLID_7_" d="M29.9,26L25,18.7V11c0-5-4-9-9-9s-9,4-9,9v7.7L2.1,26h9c0.5,2.3,2.5,4,4.9,4s4.4-1.7,4.9-4H29.9z M9,19.3V11
		c0-3.9,3.1-7,7-7s7,3.1,7,7v8.3l3.1,4.7H5.9L9,19.3z M16,28c-1.3,0-2.4-0.8-2.8-2h5.6C18.4,27.2,17.3,28,16,28z"/>
</g>
</svg>
