<?xml version="1.0" encoding="utf-8"?>
<!-- Generator: Adobe Illustrator 19.0.0, SVG Export Plug-In . SVG Version: 6.00 Build 0)  -->
<svg version="1.1" id="图层_1" xmlns="http://www.w3.org/2000/svg" xmlns:xlink="http://www.w3.org/1999/xlink" x="0px" y="0px"
	 viewBox="0 0 32 32" style="enable-background:new 0 0 32 32;" xml:space="preserve">
<g id="XMLID_1042_">
	<path id="XMLID_1043_" d="M10,29c-0.3,0-0.5-0.1-0.7-0.3l-2-2c-0.4-0.4-0.4-1,0-1.4s1-0.4,1.4,0l1.3,1.3l3.3-3.3
		c0.4-0.4,1-0.4,1.4,0s0.4,1,0,1.4l-4,4C10.5,28.9,10.3,29,10,29z"/>
</g>
<g id="XMLID_1040_">
	<path id="XMLID_1041_" d="M10,14c-0.3,0-0.5-0.1-0.7-0.3l-2-2c-0.4-0.4-0.4-1,0-1.4s1-0.4,1.4,0l1.3,1.3l3.3-3.3
		c0.4-0.4,1-0.4,1.4,0s0.4,1,0,1.4l-4,4C10.5,13.9,10.3,14,10,14z"/>
</g>
<g id="XMLID_1008_">
	<path id="XMLID_1038_" d="M6,30H4c-1.1,0-2-0.9-2-2v-9c0-1.1,0.9-2,2-2h9c1.1,0,2,0.9,2,2v1c0,0.6-0.4,1-1,1s-1-0.4-1-1v-1H4v9h2
		c0.6,0,1,0.4,1,1S6.6,30,6,30z"/>
</g>
<g id="XMLID_966_">
	<path id="XMLID_967_" d="M6,15H4c-1.1,0-2-0.9-2-2V4c0-1.1,0.9-2,2-2h9c1.1,0,2,0.9,2,2v1c0,0.6-0.4,1-1,1s-1-0.4-1-1V4H4v9h2
		c0.6,0,1,0.4,1,1S6.6,15,6,15z"/>
</g>
<g id="XMLID_964_">
	<path id="XMLID_965_" d="M29,7h-9c-0.6,0-1-0.4-1-1s0.4-1,1-1h9c0.6,0,1,0.4,1,1S29.6,7,29,7z"/>
</g>
<g id="XMLID_962_">
	<path id="XMLID_963_" d="M29,12h-9c-0.6,0-1-0.4-1-1s0.4-1,1-1h9c0.6,0,1,0.4,1,1S29.6,12,29,12z"/>
</g>
<g id="XMLID_960_">
	<path id="XMLID_961_" d="M29,22h-9c-0.6,0-1-0.4-1-1s0.4-1,1-1h9c0.6,0,1,0.4,1,1S29.6,22,29,22z"/>
</g>
<g id="XMLID_958_">
	<path id="XMLID_959_" d="M29,27h-9c-0.6,0-1-0.4-1-1s0.4-1,1-1h9c0.6,0,1,0.4,1,1S29.6,27,29,27z"/>
</g>
</svg>
