<?xml version="1.0" encoding="utf-8"?>
<!-- Generator: Adobe Illustrator 19.0.0, SVG Export Plug-In . SVG Version: 6.00 Build 0)  -->
<svg version="1.1" id="图层_1" xmlns="http://www.w3.org/2000/svg" xmlns:xlink="http://www.w3.org/1999/xlink" x="0px" y="0px"
	 viewBox="0 0 32 32" style="enable-background:new 0 0 32 32;" xml:space="preserve">
<g id="XMLID_952_">
	<path id="XMLID_953_" d="M28,26H4c-1.1,0-2-0.9-2-2V8c0-1.1,0.9-2,2-2h24c1.1,0,2,0.9,2,2v16C30,25.1,29.1,26,28,26z M28,24v1V24
		L28,24L28,24z M4,8v16h24l0-16H4z"/>
</g>
<g id="XMLID_947_">
	<path id="XMLID_948_" d="M11,17H8c-1.1,0-2-0.9-2-2v-3c0-1.1,0.9-2,2-2h3c1.1,0,2,0.9,2,2v3C13,16.1,12.1,17,11,17z M11,15v1V15
		L11,15L11,15z M8,12v3h3l0-3H8z"/>
</g>
<g id="XMLID_945_">
	<path id="XMLID_946_" d="M25,22H7c-0.6,0-1-0.4-1-1s0.4-1,1-1h18c0.6,0,1,0.4,1,1S25.6,22,25,22z"/>
</g>
<g id="XMLID_943_">
	<path id="XMLID_944_" d="M25,17h-9c-0.6,0-1-0.4-1-1s0.4-1,1-1h9c0.6,0,1,0.4,1,1S25.6,17,25,17z"/>
</g>
<g id="XMLID_786_">
	<path id="XMLID_941_" d="M25,12h-9c-0.6,0-1-0.4-1-1s0.4-1,1-1h9c0.6,0,1,0.4,1,1S25.6,12,25,12z"/>
</g>
</svg>
