<?xml version="1.0" encoding="utf-8"?>
<!-- Generator: Adobe Illustrator 19.0.0, SVG Export Plug-In . SVG Version: 6.00 Build 0)  -->
<svg version="1.1" id="图层_1" xmlns="http://www.w3.org/2000/svg" xmlns:xlink="http://www.w3.org/1999/xlink" x="0px" y="0px"
	 viewBox="0 0 32 32" style="enable-background:new 0 0 32 32;" xml:space="preserve">
<g id="XMLID_192_">
	<path id="XMLID_414_" d="M16,2C8.3,2,2,8.3,2,16s6.3,14,14,14s14-6.3,14-14S23.7,2,16,2z M16,28C9.4,28,4,22.6,4,16S9.4,4,16,4
		s12,5.4,12,12S22.6,28,16,28z"/>
	<path id="XMLID_413_" d="M23,14H9c-0.6,0-1,0.4-1,1s0.4,1,1,1h6v3h-5c-0.6,0-1,0.4-1,1s0.4,1,1,1h5v3c0,0.6,0.4,1,1,1s1-0.4,1-1v-3
		h5c0.6,0,1-0.4,1-1s-0.4-1-1-1h-5v-3h6c0.6,0,1-0.4,1-1S23.6,14,23,14z"/>
	<path id="XMLID_412_" d="M15.3,12.7c0.2,0.2,0.5,0.3,0.7,0.3s0.5-0.1,0.7-0.3l4-4c0.4-0.4,0.4-1,0-1.4s-1-0.4-1.4,0L16,10.6
		l-3.3-3.3c-0.4-0.4-1-0.4-1.4,0s-0.4,1,0,1.4L15.3,12.7z"/>
</g>
</svg>
