<?xml version="1.0" encoding="utf-8"?>
<!-- Generator: Adobe Illustrator 19.0.0, SVG Export Plug-In . SVG Version: 6.00 Build 0)  -->
<svg version="1.1" id="图层_1" xmlns="http://www.w3.org/2000/svg" xmlns:xlink="http://www.w3.org/1999/xlink" x="0px" y="0px"
	 viewBox="0 0 32 32" style="enable-background:new 0 0 32 32;" xml:space="preserve">
<g id="XMLID_2432_">
	<path id="XMLID_31_" d="M21.1,3.3L21.1,3.3c0.9-1.2,2.3-1.5,3.8-1.1c2.3,0.5,4.6,2.5,5,5.7c0.5,4.1-2.4,10.2-7,14.6
		C18.2,27,13.7,29.6,9.6,30c-3.8,0.3-6.7-2.4-7.4-5.1c-0.4-1.6-0.1-3.2,1.1-4.1c0.5-0.4,1.2-0.6,2.6-0.9c0.3-0.1,3.5-0.7,4.8-1
		c0.3-0.1,0.7,0,0.9,0.3c0.7,0.7,2,1.9,2.1,2.1c3.3-1.4,6.2-4.3,7.8-7.9c-0.1-0.1-1.6-1.6-2.4-2.4c-0.3-0.3-0.3-0.6-0.3-1
		c0.2-0.9,0.7-2.6,0.9-3.1C20.3,4.9,20.7,3.8,21.1,3.3z M22.4,4.3L22.4,4.3c-0.5,0.6-1.9,5.8-1.9,5.8l2.4,2.4
		c0.3,0.3,0.4,0.7,0.2,1.1c-1.8,4.3-5.4,7.8-9.3,9.3c-0.4,0.1-0.8,0-1-0.2l-2.2-2.1c0,0-5.8,1-6.4,1.5c-0.5,0.4-0.7,1.4-0.5,2.3
		c0.3,1,2.1,4.2,5.7,3.9c3.7-0.3,7.9-2.8,12.4-7.1c4.4-4.3,6.9-9.9,6.5-13.2c-0.4-3-3.1-4.1-3.8-4.3C23.7,3.5,22.9,3.6,22.4,4.3z"/>
</g>
</svg>
