<?xml version="1.0" encoding="utf-8"?>
<!-- Generator: Adobe Illustrator 19.0.0, SVG Export Plug-In . SVG Version: 6.00 Build 0)  -->
<svg version="1.1" id="图层_1" xmlns="http://www.w3.org/2000/svg" xmlns:xlink="http://www.w3.org/1999/xlink" x="0px" y="0px"
	 viewBox="0 0 32 32" style="enable-background:new 0 0 32 32;" xml:space="preserve">
<g id="XMLID_2080_">
	<path id="XMLID_2081_" d="M8.5,30c-3.3,0-5.7-2.4-6.3-4.7c-0.4-1.3,0-2.7,0.8-3.3c0.4-0.3,1.2-0.5,2.4-0.8c0.2,0,2.1-0.4,5.1-1
		l2.8,2.7l0.7-0.3c3.8-1.6,7.2-5,8.9-9l0.3-0.7l-0.5-0.5c-0.1-0.1-1.7-1.7-2.5-2.5c0.3-1,0.8-2.8,0.9-3.3C21.5,5,22,3.4,22.3,2.9
		C22.8,2.3,23.5,2,24.4,2c0.3,0,0.6,0,0.9,0.1c2,0.5,4.2,2.3,4.6,5.2c0.5,4.1-2.5,10.3-7.2,14.8c-5,4.8-9.7,7.5-13.7,7.8
		C8.8,30,8.6,30,8.5,30z"/>
</g>
</svg>
