<?xml version="1.0" encoding="utf-8"?>
<!-- Generator: Adobe Illustrator 19.0.0, SVG Export Plug-In . SVG Version: 6.00 Build 0)  -->
<svg version="1.1" id="图层_1" xmlns="http://www.w3.org/2000/svg" xmlns:xlink="http://www.w3.org/1999/xlink" x="0px" y="0px"
	 viewBox="0 0 32 32" style="enable-background:new 0 0 32 32;" xml:space="preserve">
<g id="XMLID_1_">
	<path id="XMLID_8_" d="M22,15c1.7,0,3-1.3,3-3s-1.3-3-3-3s-3,1.3-3,3S20.3,15,22,15z M22,11c0.6,0,1,0.4,1,1s-0.4,1-1,1s-1-0.4-1-1
		S21.4,11,22,11z"/>
	<path id="XMLID_4_" d="M28,4H4C2.9,4,2,4.9,2,6v20c0,1.1,0.9,2,2,2h24c1.1,0,2-0.9,2-2V6C30,4.9,29.1,4,28,4z M4,19.4l4-4l6.3,6.3
		c0.4,0.4,1,0.4,1.4,0l2.3-2.3l6.6,6.6H4V19.4z M28,26h-0.6l-8.7-8.7c-0.4-0.4-1-0.4-1.4,0L15,19.6l-6.3-6.3c-0.4-0.4-1-0.4-1.4,0
		L4,16.6V6h24V26z"/>
</g>
</svg>
