<?xml version="1.0" encoding="utf-8"?>
<!-- Generator: Adobe Illustrator 19.0.0, SVG Export Plug-In . SVG Version: 6.00 Build 0)  -->
<svg version="1.1" id="图层_1" xmlns="http://www.w3.org/2000/svg" xmlns:xlink="http://www.w3.org/1999/xlink" x="0px" y="0px"
	 viewBox="0 0 32 32" style="enable-background:new 0 0 32 32;" xml:space="preserve">
<g id="XMLID_2975_">
	<path id="XMLID_316_" d="M16,2C10.5,2,6,6.5,6,12c0,1.6,0.4,3.1,1,4.4c1.5,3,7.9,12.7,8.1,13.1c0.2,0.3,0.5,0.5,0.8,0.5
		s0.7-0.2,0.8-0.5c0.3-0.4,6.6-10.1,8.1-13.1c0.7-1.4,1-2.9,1-4.4C26,6.5,21.5,2,16,2z M23.2,15.5c-1.1,2.3-5.4,8.8-7.2,11.6
		c-1.8-2.8-6-9.4-7.2-11.6C8.3,14.4,8,13.2,8,12c0-4.4,3.6-8,8-8s8,3.6,8,8C24,13.2,23.7,14.4,23.2,15.5z"/>
</g>
<g id="XMLID_2974_">
	<path id="XMLID_188_" d="M16,7c-2.8,0-5,2.2-5,5s2.2,5,5,5s5-2.2,5-5S18.8,7,16,7z M16,15c-1.7,0-3-1.3-3-3s1.3-3,3-3s3,1.3,3,3
		S17.7,15,16,15z"/>
</g>
</svg>
