<?xml version="1.0" encoding="utf-8"?>
<!-- Generator: Adobe Illustrator 19.0.0, SVG Export Plug-In . SVG Version: 6.00 Build 0)  -->
<svg version="1.1" id="图层_1" xmlns="http://www.w3.org/2000/svg" xmlns:xlink="http://www.w3.org/1999/xlink" x="0px" y="0px"
	 viewBox="0 0 32 32" style="enable-background:new 0 0 32 32;" xml:space="preserve">
<g id="XMLID_686_">
	<path id="XMLID_865_" d="M5,10c0.6,0,1-0.4,1-1V3c0-0.6-0.4-1-1-1S4,2.4,4,3v6C4,9.6,4.4,10,5,10z"/>
	<path id="XMLID_740_" d="M6,12H3c-0.6,0-1,0.4-1,1s0.4,1,1,1h2v1H3c-0.6,0-1,0.4-1,1v3c0,0.6,0.4,1,1,1h3c0.6,0,1-0.4,1-1
		s-0.4-1-1-1H4v-1h2c0.6,0,1-0.4,1-1v-3C7,12.4,6.6,12,6,12z"/>
	<path id="XMLID_739_" d="M6,22H3c-0.6,0-1,0.4-1,1s0.4,1,1,1h2v1H3c-0.6,0-1,0.4-1,1s0.4,1,1,1h2v1H3c-0.6,0-1,0.4-1,1s0.4,1,1,1h3
		c0.6,0,1-0.4,1-1v-6C7,22.4,6.6,22,6,22z"/>
	<path id="XMLID_738_" d="M12,7h17c0.6,0,1-0.4,1-1s-0.4-1-1-1H12c-0.6,0-1,0.4-1,1S11.4,7,12,7z"/>
	<path id="XMLID_729_" d="M29,15H12c-0.6,0-1,0.4-1,1s0.4,1,1,1h17c0.6,0,1-0.4,1-1S29.6,15,29,15z"/>
	<path id="XMLID_710_" d="M29,25H12c-0.6,0-1,0.4-1,1s0.4,1,1,1h17c0.6,0,1-0.4,1-1S29.6,25,29,25z"/>
</g>
</svg>
