<?xml version="1.0" encoding="utf-8"?>
<!-- Generator: Adobe Illustrator 19.0.0, SVG Export Plug-In . SVG Version: 6.00 Build 0)  -->
<svg version="1.1" id="图层_1" xmlns="http://www.w3.org/2000/svg" xmlns:xlink="http://www.w3.org/1999/xlink" x="0px" y="0px"
	 viewBox="0 0 32 32" style="enable-background:new 0 0 32 32;" xml:space="preserve">
<g id="XMLID_588_">
	<path id="XMLID_593_" d="M23,14H9c-0.6,0-1,0.4-1,1s0.4,1,1,1h6v3h-5c-0.6,0-1,0.4-1,1s0.4,1,1,1h5v3c0,0.6,0.4,1,1,1s1-0.4,1-1v-3
		h5c0.6,0,1-0.4,1-1s-0.4-1-1-1h-5v-3h6c0.6,0,1-0.4,1-1S23.6,14,23,14z"/>
	<path id="XMLID_592_" d="M15.3,12.7c0.2,0.2,0.5,0.3,0.7,0.3s0.5-0.1,0.7-0.3l4-4c0.4-0.4,0.4-1,0-1.4s-1-0.4-1.4,0L16,10.6
		l-3.3-3.3c-0.4-0.4-1-0.4-1.4,0s-0.4,1,0,1.4L15.3,12.7z"/>
</g>
<g id="XMLID_6_">
	<path id="XMLID_443_" d="M16,2C11,2,6.5,4.6,4,8.8V8c0-0.6-0.4-1-1-1S2,7.4,2,8v4c0,0.6,0.4,1,1,1h4c0.6,0,1-0.4,1-1s-0.4-1-1-1
		H5.1c2-4.3,6.2-7,10.9-7c6.6,0,12,5.4,12,12s-5.4,12-12,12c-4.8,0-9.2-2.9-11-7.3c-0.2-0.5-0.8-0.7-1.3-0.5
		c-0.5,0.2-0.7,0.8-0.5,1.3C5.3,26.7,10.4,30,16,30c7.7,0,14-6.3,14-14S23.7,2,16,2z"/>
</g>
</svg>
