<?xml version="1.0" encoding="utf-8"?>
<!-- Generator: Adobe Illustrator 19.0.0, SVG Export Plug-In . SVG Version: 6.00 Build 0)  -->
<svg version="1.1" id="图层_1" xmlns="http://www.w3.org/2000/svg" xmlns:xlink="http://www.w3.org/1999/xlink" x="0px" y="0px"
	 viewBox="0 0 32 32" style="enable-background:new 0 0 32 32;" xml:space="preserve">
<g id="XMLID_1_">
	<path id="XMLID_8_" d="M26,26H4c-0.6,0-1,0.4-1,1s0.4,1,1,1h22c0.6,0,1-0.4,1-1S26.6,26,26,26z"/>
	<path id="XMLID_4_" d="M27,6h-3c0-1.1-0.9-2-2-2H7C5.9,4,5,4.9,5,6v9c0,5,4,9,9,9h1c4.3,0,7.9-3,8.8-7.1C26.7,16.6,29,14,29,11V8
		C29,6.9,28.1,6,27,6z M15,22h-1c-3.9,0-7-3.1-7-7V6h15v9C22,18.9,18.9,22,15,22z M27,11c0,1.9-1.3,3.4-3,3.9V8h3V11z"/>
</g>
</svg>
