<?xml version="1.0" encoding="utf-8"?>
<!-- Generator: Adobe Illustrator 19.0.0, SVG Export Plug-In . SVG Version: 6.00 Build 0)  -->
<svg version="1.1" id="图层_1" xmlns="http://www.w3.org/2000/svg" xmlns:xlink="http://www.w3.org/1999/xlink" x="0px" y="0px"
	 viewBox="0 0 32 32" style="enable-background:new 0 0 32 32;" xml:space="preserve">
<g id="XMLID_1414_">
	<path id="XMLID_1419_" d="M29.7,5.3l-3-3C26.5,2.1,26.3,2,26,2H3C2.4,2,2,2.4,2,3v26c0,0.6,0.4,1,1,1h26c0.6,0,1-0.4,1-1V6
		C30,5.7,29.9,5.5,29.7,5.3z M10,4h12v8H10V4z M28,28H4V4h4v9c0,0.6,0.4,1,1,1h14c0.6,0,1-0.4,1-1V4h1.6L28,6.4V28z"/>
	<path id="XMLID_1418_" d="M7,17c-0.6,0-1,0.4-1,1s0.4,1,1,1h18c0.6,0,1-0.4,1-1s-0.4-1-1-1H7z"/>
	<path id="XMLID_1417_" d="M25,23H7c-0.6,0-1,0.4-1,1s0.4,1,1,1h18c0.6,0,1-0.4,1-1S25.6,23,25,23z"/>
	<path id="XMLID_1416_" d="M19,6c-0.6,0-1,0.4-1,1v2c0,0.6,0.4,1,1,1s1-0.4,1-1V7C20,6.4,19.6,6,19,6z"/>
</g>
</svg>
