<?xml version="1.0" encoding="utf-8"?>
<!-- Generator: Adobe Illustrator 19.0.0, SVG Export Plug-In . SVG Version: 6.00 Build 0)  -->
<svg version="1.1" id="图层_1" xmlns="http://www.w3.org/2000/svg" xmlns:xlink="http://www.w3.org/1999/xlink" x="0px" y="0px"
	 viewBox="0 0 32 32" style="enable-background:new 0 0 32 32;" xml:space="preserve">
<g id="XMLID_75_">
	<path id="XMLID_36_" d="M29.7,28.3l-7.4-7.4c1.7-2,2.7-4.6,2.7-7.4C25,7.1,19.9,2,13.5,2C7.1,2,2,7.1,2,13.5C2,19.9,7.1,25,13.5,25
		c2.8,0,5.4-1,7.4-2.7l7.4,7.4c0.2,0.2,0.5,0.3,0.7,0.3s0.5-0.1,0.7-0.3C30.1,29.3,30.1,28.7,29.7,28.3z M13.5,23
		C8.3,23,4,18.7,4,13.5C4,8.3,8.3,4,13.5,4c5.2,0,9.5,4.3,9.5,9.5C23,18.7,18.7,23,13.5,23z"/>
</g>
</svg>
