<?xml version="1.0" encoding="utf-8"?>
<!-- Generator: Adobe Illustrator 19.0.0, SVG Export Plug-In . SVG Version: 6.00 Build 0)  -->
<svg version="1.1" id="图层_1" xmlns="http://www.w3.org/2000/svg" xmlns:xlink="http://www.w3.org/1999/xlink" x="0px" y="0px"
	 viewBox="0 0 32 32" style="enable-background:new 0 0 32 32;" xml:space="preserve">
<g id="Page-1_9_">
	<path id="XMLID_474_" d="M29.1,19.3L26.9,18c0.1-0.7,0.2-1.3,0.2-2c0-0.7-0.1-1.4-0.2-2l2.2-1.3c0.9-0.5,1.2-1.7,0.7-2.5l-1.9-3.2
		c-0.5-0.9-1.6-1.2-2.5-0.7l-2.2,1.3c-1-0.9-2.2-1.6-3.5-2.1V3.9c0-1-0.8-1.9-1.9-1.9h-3.7c-1,0-1.9,0.8-1.9,1.9v1.6
		C11,5.9,9.8,6.6,8.8,7.5L6.6,6.2C5.7,5.7,4.6,6,4.1,6.9l-1.9,3.2c-0.5,0.9-0.2,2,0.7,2.5L5.1,14c-0.1,0.7-0.2,1.3-0.2,2
		c0,0.7,0.1,1.4,0.2,2l-2.2,1.3C2,19.8,1.7,21,2.2,21.9l1.9,3.2c0.5,0.9,1.6,1.2,2.5,0.7l2.2-1.3c1,0.9,2.2,1.6,3.5,2.1v1.6
		c0,1,0.8,1.9,1.9,1.9h3.7c1,0,1.9-0.8,1.9-1.9v-1.6c1.3-0.5,2.5-1.2,3.5-2.1l2.2,1.3c0.9,0.5,2,0.2,2.5-0.7l1.9-3.2
		C30.3,21,30,19.8,29.1,19.3z M27.7,21.7l-0.9,1.6c-0.3,0.4-0.8,0.6-1.3,0.3l-2.6-1.5c-1.3,1.5-3.1,2.5-5.1,3v2.1
		c0,0.5-0.4,0.9-0.9,0.9h-1.9c-0.5,0-0.9-0.4-0.9-0.9v-2.1c-2-0.4-3.8-1.5-5.1-3l-2.6,1.5c-0.4,0.3-1,0.1-1.3-0.3l-0.9-1.6
		c-0.3-0.4-0.1-1,0.3-1.3l2.6-1.5C6.9,18,6.7,17,6.7,16c0-1,0.2-2,0.5-2.9l-2.6-1.5c-0.4-0.3-0.6-0.8-0.3-1.3l0.9-1.6
		c0.3-0.4,0.8-0.6,1.3-0.3l2.6,1.5c1.3-1.5,3.1-2.5,5.1-3V4.8c0-0.5,0.4-0.9,0.9-0.9h1.9c0.5,0,0.9,0.4,0.9,0.9v2.1
		c2,0.4,3.8,1.5,5.1,3l2.6-1.5c0.4-0.3,1-0.1,1.3,0.3l0.9,1.6c0.3,0.4,0.1,1-0.3,1.3l-2.6,1.5c0.3,0.9,0.5,1.9,0.5,2.9
		c0,1-0.2,2-0.5,2.9l2.6,1.5C27.8,20.7,27.9,21.3,27.7,21.7z"/>
	<path id="XMLID_304_" d="M16,11.3c-2.6,0-4.6,2.1-4.6,4.7c0,2.6,2.1,4.7,4.6,4.7s4.6-2.1,4.6-4.7C20.6,13.4,18.6,11.3,16,11.3z
		 M16,18.8c-1.5,0-2.8-1.3-2.8-2.8c0-1.5,1.2-2.8,2.8-2.8s2.8,1.3,2.8,2.8C18.8,17.5,17.5,18.8,16,18.8z"/>
</g>
</svg>
