<?xml version="1.0" encoding="utf-8"?>
<!-- Generator: Adobe Illustrator 19.0.0, SVG Export Plug-In . SVG Version: 6.00 Build 0)  -->
<svg version="1.1" id="图层_1" xmlns="http://www.w3.org/2000/svg" xmlns:xlink="http://www.w3.org/1999/xlink" x="0px" y="0px"
	 viewBox="0 0 32 32" style="enable-background:new 0 0 32 32;" xml:space="preserve">
<g id="XMLID_2774_">
	<path id="XMLID_38_" d="M16,2C8.3,2,2,8.3,2,16s6.3,14,14,14s14-6.3,14-14S23.7,2,16,2z M16,28C9.4,28,4,22.6,4,16S9.4,4,16,4
		s12,5.4,12,12S22.6,28,16,28z"/>
</g>
<g id="XMLID_2773_">
	<circle id="XMLID_39_" cx="20.5" cy="11.5" r="1.5"/>
</g>
<g id="XMLID_2772_">
	<circle id="XMLID_347_" cx="11.5" cy="11.5" r="1.5"/>
</g>
<g id="XMLID_2771_">
	<path id="XMLID_40_" d="M23,17c-0.5-0.2-1.1,0.1-1.2,0.7C21,20.2,18.6,22,16,22s-5-1.8-5.8-4.3C10.1,17.2,9.5,16.9,9,17
		c-0.5,0.2-0.8,0.7-0.7,1.2c1,3.4,4.2,5.7,7.7,5.7s6.7-2.3,7.7-5.7C23.8,17.8,23.5,17.2,23,17z"/>
</g>
</svg>
