<?xml version="1.0" encoding="utf-8"?>
<!-- Generator: Adobe Illustrator 19.0.0, SVG Export Plug-In . SVG Version: 6.00 Build 0)  -->
<svg version="1.1" id="图层_1" xmlns="http://www.w3.org/2000/svg" xmlns:xlink="http://www.w3.org/1999/xlink" x="0px" y="0px"
	 viewBox="0 0 32 32" style="enable-background:new 0 0 32 32;" xml:space="preserve">
<style type="text/css">
	.st0{fill:#040000;}
</style>
<path id="XMLID_1482_" class="st0" d="M16,2c-0.3,0-0.6,0.1-0.8,0.3l-8.8,8.8c-0.7,0.7-0.2,2,0.8,2h17.7c1,0,1.6-1.2,0.8-2l-8.8-8.8
	C16.6,2.1,16.3,2,16,2L16,2z"/>
<path id="XMLID_1481_" class="st0" d="M16,30c0.3,0,0.6-0.1,0.8-0.3l8.8-8.8c0.7-0.7,0.2-2-0.8-2H7.2c-1,0-1.6,1.2-0.8,2l8.8,8.8
	C15.4,29.9,15.7,30,16,30L16,30z"/>
</svg>
