<?xml version="1.0" encoding="utf-8"?>
<!-- Generator: Adobe Illustrator 19.0.0, SVG Export Plug-In . SVG Version: 6.00 Build 0)  -->
<svg version="1.1" id="图层_1" xmlns="http://www.w3.org/2000/svg" xmlns:xlink="http://www.w3.org/1999/xlink" x="0px" y="0px"
	 viewBox="0 0 32 32" style="enable-background:new 0 0 32 32;" xml:space="preserve">
<g id="XMLID_3718_">
	<path id="XMLID_393_" d="M29.4,16.3l-14-14C15.2,2.1,15,2,14.7,2H3.9C2.9,2,2,2.9,2,3.9v10.8c0,0.3,0.1,0.5,0.3,0.7l14,14
		c0.4,0.4,0.9,0.6,1.4,0.6c0.5,0,1-0.2,1.4-0.6L29.4,19C30.2,18.3,30.2,17,29.4,16.3z M17.7,28L4,14.3V4h10.3L28,17.7L17.7,28z"/>
</g>
<g id="XMLID_3717_">
	<path id="XMLID_390_" d="M9,6C7.3,6,6,7.3,6,9s1.3,3,3,3s3-1.3,3-3S10.7,6,9,6z M9,10c-0.6,0-1-0.4-1-1s0.4-1,1-1s1,0.4,1,1
		S9.6,10,9,10z"/>
</g>
</svg>
