<?xml version="1.0" encoding="utf-8"?>
<!-- Generator: Adobe Illustrator 19.0.0, SVG Export Plug-In . SVG Version: 6.00 Build 0)  -->
<svg version="1.1" id="图层_1" xmlns="http://www.w3.org/2000/svg" xmlns:xlink="http://www.w3.org/1999/xlink" x="0px" y="0px"
	 viewBox="0 0 32 32" style="enable-background:new 0 0 32 32;" xml:space="preserve">
<g id="XMLID_1_">
	<path id="XMLID_7_" d="M13.9,13.8c1.3-1,2.1-2.6,2.1-4.3c0-3-2.5-5.5-5.5-5.5C7.5,4,5,6.5,5,9.5c0,1.7,0.8,3.2,2,4.2
		C4,15,2,18,2,21.5V28c0,1.1,0.9,2,2,2h13c1.1,0,2-0.9,2-2v-6.2C19,18.3,16.9,15.2,13.9,13.8z M7,9.5C7,7.6,8.6,6,10.5,6
		C12.4,6,14,7.6,14,9.5c0,1.9-1.6,3.5-3.5,3.5C8.6,13,7,11.4,7,9.5z M17,28H4v-6.5c0-3.7,2.8-6.5,6.5-6.5c3.5,0,6.5,3.2,6.5,6.8V28z
		"/>
	<path id="XMLID_4_" d="M25.2,11.1c1.2-0.9,1.9-2.4,1.9-4C27.1,4.3,24.8,2,22,2c-2.8,0-5.1,2.3-5.1,5.1c0,1.6,0.7,3,1.8,3.9
		c-0.4,0.2-0.8,0.4-1.3,0.7c-0.5,0.3-0.6,0.9-0.2,1.4c0.3,0.5,0.9,0.6,1.4,0.2c1.1-0.8,2-1.1,3.4-1.1c3.1,0,6,3,6,6.2V24h-6
		c-0.6,0-1,0.4-1,1s0.4,1,1,1h6c1.1,0,2-0.9,2-2v-5.4C30,15.4,27.9,12.5,25.2,11.1z M22,4c1.7,0,3.1,1.4,3.1,3.1s-1.4,3.1-3.1,3.1
		s-3.1-1.4-3.1-3.1S20.3,4,22,4z"/>
</g>
</svg>
