<?xml version="1.0" encoding="utf-8"?>
<!-- Generator: Adobe Illustrator 19.0.0, SVG Export Plug-In . SVG Version: 6.00 Build 0)  -->
<svg version="1.1" id="图层_1" xmlns="http://www.w3.org/2000/svg" xmlns:xlink="http://www.w3.org/1999/xlink" x="0px" y="0px"
	 viewBox="0 0 32 32" style="enable-background:new 0 0 32 32;" xml:space="preserve">
<g id="XMLID_2814_">
	<path id="XMLID_309_" d="M27,25H5c-0.6,0-1,0.4-1,1s0.4,1,1,1h22c0.6,0,1-0.4,1-1S27.6,25,27,25z"/>
</g>
<g id="XMLID_2811_">
	<path id="XMLID_307_" d="M22.7,11.3l-6-6c-0.1-0.1-0.2-0.2-0.3-0.2c-0.2-0.1-0.5-0.1-0.8,0c-0.1,0.1-0.2,0.1-0.3,0.2l-6,6
		c-0.4,0.4-0.4,1,0,1.4s1,0.4,1.4,0L15,8.4V20c0,0.6,0.4,1,1,1s1-0.4,1-1V8.4l4.3,4.3c0.2,0.2,0.5,0.3,0.7,0.3s0.5-0.1,0.7-0.3
		C23.1,12.3,23.1,11.7,22.7,11.3z"/>
</g>
</svg>
