<?xml version="1.0" encoding="utf-8"?>
<!-- Generator: Adobe Illustrator 19.0.0, SVG Export Plug-In . SVG Version: 6.00 Build 0)  -->
<svg version="1.1" id="图层_1" xmlns="http://www.w3.org/2000/svg" xmlns:xlink="http://www.w3.org/1999/xlink" x="0px" y="0px"
	 viewBox="0 0 32 32" style="enable-background:new 0 0 32 32;" xml:space="preserve">
<g id="XMLID_219_">
	<path id="XMLID_624_" d="M29,14c0.6,0,1-0.4,1-1s-0.4-1-1-1H12V8h17c0.6,0,1-0.4,1-1s-0.4-1-1-1H3C2.4,6,2,6.4,2,7s0.4,1,1,1h7v17
		c0,0.6,0.4,1,1,1h18c0.6,0,1-0.4,1-1s-0.4-1-1-1H12v-4h17c0.6,0,1-0.4,1-1s-0.4-1-1-1H12v-4H29z"/>
</g>
</svg>
