<?xml version="1.0" encoding="utf-8"?>
<!-- Generator: Adobe Illustrator 19.0.0, SVG Export Plug-In . SVG Version: 6.00 Build 0)  -->
<svg version="1.1" id="图层_1" xmlns="http://www.w3.org/2000/svg" xmlns:xlink="http://www.w3.org/1999/xlink" x="0px" y="0px"
	 viewBox="0 0 32 32" style="enable-background:new 0 0 32 32;" xml:space="preserve">
<g id="XMLID_1_">
	<path id="XMLID_5_" d="M24,15H10v-5c0-3.3,2.7-6,6-6s6,2.7,6,6c0,0.6,0.4,1,1,1s1-0.4,1-1c0-4.4-3.6-8-8-8s-8,3.6-8,8v5
		c-1.1,0-2,0.9-2,2v11c0,1.1,0.9,2,2,2h16c1.1,0,2-0.9,2-2V17C26,15.9,25.1,15,24,15z M24,28H8V17h16V28z"/>
	<path id="XMLID_4_" d="M16,25c0.6,0,1-0.4,1-1v-3c0-0.6-0.4-1-1-1s-1,0.4-1,1v3C15,24.6,15.4,25,16,25z"/>
</g>
</svg>
