<?xml version="1.0" encoding="utf-8"?>
<!-- Generator: Adobe Illustrator 19.0.0, SVG Export Plug-In . SVG Version: 6.00 Build 0)  -->
<svg version="1.1" id="图层_1" xmlns="http://www.w3.org/2000/svg" xmlns:xlink="http://www.w3.org/1999/xlink" x="0px" y="0px"
	 viewBox="0 0 32 32" style="enable-background:new 0 0 32 32;" xml:space="preserve">
<g id="XMLID_1_">
	<path id="XMLID_5_" d="M29,16c-0.6,0-1,0.4-1,1l0,8L4,25v-8c0-0.6-0.4-1-1-1s-1,0.4-1,1v8c0,1.1,0.9,2,2,2h24c1.1,0,2-0.9,2-2v-8
		C30,16.4,29.6,16,29,16z"/>
	<path id="XMLID_4_" d="M10.7,12.7L15,8.4V20c0,0.6,0.4,1,1,1s1-0.4,1-1V8.4l4.3,4.3c0.2,0.2,0.5,0.3,0.7,0.3s0.5-0.1,0.7-0.3
		c0.4-0.4,0.4-1,0-1.4l-6-6c-0.1-0.1-0.2-0.2-0.3-0.2c-0.2-0.1-0.5-0.1-0.8,0c-0.1,0.1-0.2,0.1-0.3,0.2l-6,6c-0.4,0.4-0.4,1,0,1.4
		S10.3,13.1,10.7,12.7z"/>
</g>
</svg>
