<?xml version="1.0" encoding="utf-8"?>
<!-- Generator: Adobe Illustrator 19.0.0, SVG Export Plug-In . SVG Version: 6.00 Build 0)  -->
<svg version="1.1" id="图层_1" xmlns="http://www.w3.org/2000/svg" xmlns:xlink="http://www.w3.org/1999/xlink" x="0px" y="0px"
	 viewBox="0 0 32 32" style="enable-background:new 0 0 32 32;" xml:space="preserve">
<g id="XMLID_103_">
	<path id="XMLID_274_" d="M19.9,14.8C21.8,13.6,23,11.4,23,9c0-3.9-3.1-7-7-7c-3.9,0-7,3.1-7,7c0,2.4,1.2,4.4,3,5.7
		c-3.6,1.4-6,4.7-6,9V29c0,0.6,0.4,1,1,1h17c1.1,0,2-0.9,2-2v-4C26,20,23.4,16.4,19.9,14.8z M11,9c0-2.8,2.2-5,5-5s5,2.2,5,5
		s-2.2,5-5,5S11,11.8,11,9z M24,28H8v-4.3c0-4.6,3.2-7.7,8-7.7c4.3,0,8,3.7,8,8V28z"/>
</g>
</svg>
