<?xml version="1.0" encoding="utf-8"?>
<!-- Generator: Adobe Illustrator 19.0.0, SVG Export Plug-In . SVG Version: 6.00 Build 0)  -->
<svg version="1.1" id="图层_1" xmlns="http://www.w3.org/2000/svg" xmlns:xlink="http://www.w3.org/1999/xlink" x="0px" y="0px"
	 viewBox="0 0 32 32" style="enable-background:new 0 0 32 32;" xml:space="preserve">
<g id="XMLID_1_">
	<path id="XMLID_13_" d="M28,2H4C2.9,2,2,2.9,2,4v24c0,1.1,0.9,2,2,2h24c1.1,0,2-0.9,2-2V4C30,2.9,29.1,2,28,2z M28,28H4V4h24L28,28
		z"/>
	<path id="XMLID_10_" d="M7,17c0.3,0,0.5-0.1,0.7-0.3c0.5-0.5,0.9-1,1.3-1.5l3,2.3c-1.3,2.1-3.1,4.4-5.7,6.7c-0.4,0.4-0.4,1-0.1,1.4
		C6.5,25.9,6.7,26,7,26c0.2,0,0.5-0.1,0.7-0.3C16.9,17.6,17,9.3,17,9c0-0.3-0.1-0.5-0.3-0.7C16.5,8.1,16.3,8,16,8h-4.1
		C12,7.4,12,7.1,12,7c0-0.6-0.4-1-1-1c-0.5,0-1,0.4-1,1c0,0-0.1,4.7-3.7,8.3c-0.4,0.4-0.4,1,0,1.4C6.5,16.9,6.7,17,7,17z M14.9,10
		c-0.2,1.2-0.6,3.2-1.9,5.7l-2.9-2.2c0.7-1.3,1.2-2.5,1.4-3.6H14.9z"/>
	<path id="XMLID_9_" d="M20,26c0.6,0,1-0.4,1-1v-9.2l3.2,3.9c0.2,0.2,0.5,0.4,0.8,0.4c0.2,0,0.5-0.1,0.6-0.2c0.4-0.4,0.5-1,0.1-1.4
		L21,12.6V7c0-0.6-0.4-1-1-1s-1,0.4-1,1v18C19,25.6,19.4,26,20,26z"/>
</g>
</svg>
