<?xml version="1.0" encoding="utf-8"?>
<!-- Generator: Adobe Illustrator 19.0.0, SVG Export Plug-In . SVG Version: 6.00 Build 0)  -->
<svg version="1.1" id="图层_1" xmlns="http://www.w3.org/2000/svg" xmlns:xlink="http://www.w3.org/1999/xlink" x="0px" y="0px"
	 viewBox="0 0 32 32" style="enable-background:new 0 0 32 32;" xml:space="preserve">
<g id="Page-1_8_">
	<path id="XMLID_514_" d="M16,5.2c-0.7,0-1.5,0.1-2.2,0.2L8.4,2.1C8.1,2,7.7,2,7.4,2.1C7.1,2.3,6.9,2.6,6.9,3v5.2
		C3.8,10.6,2,14,2,17.6C2,24.4,8.3,30,16,30s14-5.6,14-12.4S23.7,5.2,16,5.2z M16,28C9.4,28,4,23.3,4,17.6c0-3.1,1.6-6.1,4.4-8.1
		c0.3-0.2,0.4-0.5,0.4-0.8v-4l4.2,2.5c0.2,0.1,0.4,0.2,0.7,0.1c0.8-0.1,1.5-0.2,2.3-0.2c6.6,0,12,4.7,12,10.4S22.6,28,16,28z"/>
</g>
<g id="XMLID_2495_">
	<path id="XMLID_513_" d="M16.5,13c-0.8,0-1.5,0.7-1.5,1.5v2c0,0.8,0.7,1.5,1.5,1.5s1.5-0.7,1.5-1.5v-2C18,13.7,17.3,13,16.5,13z"/>
</g>
<g id="XMLID_2494_">
	<path id="XMLID_512_" d="M23.5,13c-0.8,0-1.5,0.7-1.5,1.5v2c0,0.8,0.7,1.5,1.5,1.5s1.5-0.7,1.5-1.5v-2C25,13.7,24.3,13,23.5,13z"/>
</g>
</svg>
