<?xml version="1.0" encoding="utf-8"?>
<!-- Generator: Adobe Illustrator 19.0.0, SVG Export Plug-In . SVG Version: 6.00 Build 0)  -->
<svg version="1.1" id="图层_1" xmlns="http://www.w3.org/2000/svg" xmlns:xlink="http://www.w3.org/1999/xlink" x="0px" y="0px"
	 viewBox="0 0 32 32" style="enable-background:new 0 0 32 32;" xml:space="preserve">
<g id="XMLID_2149_">
	<path id="XMLID_2151_" d="M16,5.2c-0.7,0-1.5,0.1-2.2,0.2L8.4,2.1C8.1,2,7.7,2,7.4,2.1C7.1,2.3,6.9,2.6,6.9,3v5.2
		C3.8,10.6,2,14,2,17.6C2,24.4,8.3,30,16,30s14-5.6,14-12.4S23.7,5.2,16,5.2z M18,16.5c0,0.8-0.7,1.5-1.5,1.5S15,17.3,15,16.5v-2
		c0-0.8,0.7-1.5,1.5-1.5s1.5,0.7,1.5,1.5V16.5z M25,16.5c0,0.8-0.7,1.5-1.5,1.5S22,17.3,22,16.5v-2c0-0.8,0.7-1.5,1.5-1.5
		s1.5,0.7,1.5,1.5V16.5z"/>
</g>
</svg>
