<?xml version="1.0" encoding="utf-8"?>
<svg version="1.1" id="Layer_1" xmlns="http://www.w3.org/2000/svg" xmlns:xlink="http://www.w3.org/1999/xlink" x="0px" y="0px"
	 viewBox="0 0 16 16" style="enable-background:new 0 0 16 16;" xml:space="preserve">
<path fill="#333333" d="M16,2.2v4.4c0,0.4-0.3,0.7-0.7,0.7h-4.4c-0.4,0-0.7-0.3-0.7-0.7c0-0.4,0.3-0.7,0.7-0.7h2.5c-1-1-1.8-1.7-2-1.9
	c-0.6-0.6-1.2-1-1.9-1.3C8.8,2.3,8,2.2,7.3,2.2S5.8,2.3,5.1,2.6C4.4,2.9,3.7,3.3,3.2,3.9c-0.6,0.6-1,1.2-1.3,1.9
	C1.6,6.5,1.5,7.2,1.5,8s0.1,1.5,0.4,2.2c0.3,0.7,0.7,1.4,1.3,1.9c0.6,0.6,1.2,1,1.9,1.3c0.7,0.3,1.4,0.4,2.2,0.4s1.5-0.1,2.2-0.4
	c0.7-0.3,1.4-0.7,1.9-1.3c0.3-0.3,0.6-0.7,0.8-1c0.2-0.4,0.4-0.7,0.6-1.1c0.1-0.4,0.5-0.6,0.9-0.4c0.4,0.1,0.6,0.5,0.4,0.9
	c-0.2,0.5-0.4,1-0.7,1.4c-0.3,0.5-0.6,0.9-1,1.3c-0.7,0.7-1.5,1.2-2.4,1.6c-0.4,0.2-0.9,0.3-1.3,0.4c-0.5,0.1-0.9,0.1-1.4,0.1
	c-0.5,0-0.9,0-1.4-0.1c-0.5-0.1-0.9-0.2-1.3-0.4c-0.9-0.4-1.7-0.9-2.4-1.6s-1.2-1.5-1.6-2.4c-0.2-0.4-0.3-0.9-0.4-1.3
	C0,8.9,0,8.5,0,8c0-0.5,0-0.9,0.1-1.4c0.1-0.5,0.2-0.9,0.4-1.3c0.4-0.9,0.9-1.7,1.6-2.4s1.5-1.2,2.4-1.6C5,1.1,5.4,0.9,5.9,0.9
	c0.5-0.1,0.9-0.1,1.4-0.1c0.5,0,0.9,0,1.4,0.1C9.1,0.9,9.6,1.1,10,1.3c0.9,0.4,1.7,0.9,2.4,1.6c0.2,0.2,1.1,1,2.1,2.1V2.2
	c0-0.4,0.3-0.7,0.7-0.7C15.7,1.5,16,1.8,16,2.2z"/>
</svg>
