<?xml version="1.0" encoding="UTF-8" standalone="no"?>
<svg width="16px" height="16px" viewBox="0 0 16 16" version="1.1" xmlns="http://www.w3.org/2000/svg" xmlns:xlink="http://www.w3.org/1999/xlink">
    <title>Upper</title>
    <defs></defs>
    <g id="Page-1" stroke="none" stroke-width="1" fill="none" fill-rule="evenodd">
        <g id="g-background" transform="translate(-841.000000, -160.000000)">
            <g id="arrow-up-circle" transform="translate(834.000000, 153.000000)">
                <g id="Page-1">
                    <g>
                        <g id="Icon-Set">
                            <rect id="Rectangle-160" x="7" y="7" width="16" height="16"></rect>
                            <path d="M15.9011094,8.27376428 C15.6550727,8.03069024 15.3188225,7.95979364 15,8.02056215 C14.6811775,7.95979364 14.3449273,8.03069024 14.0988906,8.27376428 L8.30062608,14.0062604 C7.89979131,14.4012558 7.89979131,15.0393251 8.30062608,15.4444485 C8.69941054,15.8394438 9.34935745,15.8394438 9.75019222,15.4444485 L13.9748471,11.2615494 L13.9748471,21.9871915 C13.9748471,22.5442362 14.4330905,23 15,23 C15.5669095,23 16.0251529,22.5442362 16.0251529,21.9871915 L16.0251529,11.2615494 L20.2498078,15.4444485 C20.6506426,15.8394438 21.2995643,15.8394438 21.6993739,15.4444485 C22.1002087,15.0393251 22.1002087,14.4012558 21.6993739,14.0062604 L15.9011094,8.27376428 L15.9011094,8.27376428 L15.9011094,8.27376428 Z" id="arrow-up-circle-path" fill="#000000"></path>
                        </g>
                    </g>
                </g>
            </g>
        </g>
    </g>
</svg>