<?xml version="1.0" encoding="UTF-8" standalone="no"?>
<svg width="16px" height="16px" viewBox="0 0 16 16" version="1.1" xmlns="http://www.w3.org/2000/svg" xmlns:xlink="http://www.w3.org/1999/xlink">
    <title>File</title>
    <defs></defs>
    <!--<polygon fill="#FFFFFF" points="-159.4,177.4 -156.8,177.4 -159.4,174.8 " />
    <path fill="#FFFFFF" d="M-168.6,174c-0.4,0-0.7,0.3-0.7,0.7v12.5c0,0.4,0.3,0.7,0.7,0.7h11.2c0.4,0,0.7-0.3,0.7-0.7v-8.8h-3.2
    c-0.3,0-0.5-0.2-0.5-0.5V174H-168.6z" />-->
    <g id="Page-1" stroke="none" stroke-width="1" fill="none" fill-rule="evenodd">
        <g id="G-1" transform="translate(-1086.000000, -602.000000)">
            <g id="file-document.1" transform="translate(1086.000000, 602.000000)">
                <g id="file-document">
                    <g id="Page-1">
                        <g id="Icon-Set" transform="translate(2.000000, 0.000000)" fill="#9488C5">
                            <path d="M9.87018115,4.00196162 C9.32534715,4.00196162 8.88316303,3.55403485 8.88316303,3.00212509 L8.88316303,1.00245202 L11.8442174,4.00196162 L9.87018115,4.00196162 L9.87018115,4.00196162 L9.87018115,4.00196162 Z M11.8442174,14.0003269 C11.8442174,14.5522367 11.4020333,15.0001635 10.8571993,15.0001635 L1.97403623,15.0001635 C1.42920223,15.0001635 0.987018115,14.5522367 0.987018115,14.0003269 L0.987018115,2.00228855 C0.987018115,1.45037879 1.42920223,1.00245202 1.97403623,1.00245202 L7.88232667,1.00245202 C7.8734435,2.19975627 7.89614492,3.00212509 7.89614492,3.00212509 C7.89614492,4.10644453 8.78001964,5.00179815 9.87018115,5.00179815 L11.8442174,5.00179815 L11.8442174,14.0003269 L11.8442174,14.0003269 L11.8442174,14.0003269 Z M8.88316303,0.00261548934 L8.88316303,0.0166132008 C8.81999387,0.0166132008 8.55646004,-0.00788279425 7.89614492,0.00261548934 L1.97403623,0.00261548934 C0.883874722,0.00261548934 0,0.897969104 0,2.00228855 L0,14.0003269 C0,15.1046464 0.883874722,16 1.97403623,16 L10.8571993,16 C11.9473608,16 12.8312355,15.1046464 12.8312355,14.0003269 L12.8312355,5.00179815 L12.8312355,4.00196162 L8.88316303,0.00261548934 L8.88316303,0.00261548934 L8.88316303,0.00261548934 Z" id="file-document"></path>
                        </g>
                    </g>
                </g>
            </g>
        </g>
    </g>
</svg>