<?xml version="1.0" encoding="UTF-8" standalone="no"?>
<svg width="16px" height="16px" viewBox="0 0 16 16" version="1.1" xmlns="http://www.w3.org/2000/svg" xmlns:xlink="http://www.w3.org/1999/xlink">
    <title>Rectangle Search</title>
    <defs></defs>
    <g id="Page-1" stroke="none" stroke-width="1" fill="none" fill-rule="evenodd">
        <g id="Group-1" transform="translate(-882.000000, -160.000000)">
            <g id="Group-2" transform="translate(882.000000, 160.000000)">
                <g id="Group-3">
                    <g id="Group-4">
                        <rect id="Rectangle-159" x="0" y="0" width="16" height="16"></rect>
                        <path d="M14.8137045,13.9137273 L11.2021818,10.3022045 C11.9860227,9.32236364 12.4545455,8.07954545 12.4545455,6.72727273 C12.4545455,3.56422727 9.89047727,1 6.72727273,1 C3.56422727,1 1,3.56422727 1,6.72727273 C1,9.89031818 3.56422727,12.4545455 6.72727273,12.4545455 C8.07954545,12.4545455 9.32236364,11.9858636 10.3022045,11.2020227 L13.9137273,14.8135455 C14.0379773,14.9377955 14.2008864,15 14.3636364,15 C14.5265455,15 14.6894545,14.9377955 14.8137045,14.8135455 C15.0622045,14.5652045 15.0622045,14.1620682 14.8137045,13.9137273 L14.8137045,13.9137273 Z M6.72727273,11.1818182 C4.26709091,11.1818182 2.27272727,9.18745455 2.27272727,6.72727273 C2.27272727,4.26709091 4.26709091,2.27272727 6.72727273,2.27272727 C9.18761364,2.27272727 11.1818182,4.26709091 11.1818182,6.72727273 C11.1818182,9.18745455 9.18761364,11.1818182 6.72727273,11.1818182 L6.72727273,11.1818182 Z" id="Shape" fill="#999999"></path>
                    </g>
                </g>
            </g>
        </g>
    </g>
</svg>