<?xml version="1.0" encoding="utf-8"?>
<!-- Generator: Adobe Illustrator 19.0.0, SVG Export Plug-In . SVG Version: 6.00 Build 0)  -->
<svg version="1.1" id="图层_1" xmlns="http://www.w3.org/2000/svg" xmlns:xlink="http://www.w3.org/1999/xlink" x="0px" y="0px"
	 viewBox="-239 243 16 16" style="enable-background:new -239 243 16 16;" xml:space="preserve">
<style type="text/css">
	.st0{fill:#999999;}
</style>
<title>comment-3</title>
<desc>Created with Sketch.</desc>
<g id="Page-1">
	<g id="SOP后台配置_xFF0D_类目" transform="translate(-1416.000000, -128.000000)">
		<g id="comment-3.1" transform="translate(1416.000000, 128.000000)">
			<path id="comment-3" class="st0" d="M-224.6,248.9c-0.9,0-1.6,0.7-1.6,1.6s0.7,1.6,1.6,1.6c0.9,0,1.6-0.7,1.6-1.6
				S-223.7,248.9-224.6,248.9L-224.6,248.9L-224.6,248.9z M-237.4,248.9c-0.9,0-1.6,0.7-1.6,1.6s0.7,1.6,1.6,1.6
				c0.9,0,1.6-0.7,1.6-1.6S-236.5,248.9-237.4,248.9L-237.4,248.9L-237.4,248.9z M-231,248.9c-0.9,0-1.6,0.7-1.6,1.6
				s0.7,1.6,1.6,1.6s1.6-0.7,1.6-1.6S-230.1,248.9-231,248.9L-231,248.9L-231,248.9z"/>
		</g>
	</g>
</g>
</svg>
