<?xml version="1.0" encoding="UTF-8" standalone="no"?>
<svg width="16px" height="16px" viewBox="0 0 16 16" version="1.1" xmlns="http://www.w3.org/2000/svg" xmlns:xlink="http://www.w3.org/1999/xlink">
    <!-- Generator: Sketch 3.8.1 (29687) - http://www.bohemiancoding.com/sketch -->
    <title>Rectangle 162</title>
    <desc>Created with Sketch.</desc>
    <defs></defs>
    <g id="Page-1" stroke="none" stroke-width="1" fill="none" fill-rule="evenodd">
        <g id="SOP后台配置－类目" transform="translate(-1086.000000, -602.000000)">
            <g id="file-document.1" transform="translate(1086.000000, 602.000000)">
                <g id="file-document">
                    <g id="Page-1">
                        <rect id="Rectangle-162" x="0" y="0" width="16" height="16"></rect>
                        <g id="Icon-Set" transform="translate(2.000000, 0.000000)" fill="#9488C5">
                            <path d="M9.87018115,4.00196162 C9.32534715,4.00196162 8.88316303,3.55403485 8.88316303,3.00212509 L8.88316303,1.00245202 L11.8442174,4.00196162 L9.87018115,4.00196162 L9.87018115,4.00196162 L9.87018115,4.00196162 Z M11.8442174,14.0003269 C11.8442174,14.5522367 11.4020333,15.0001635 10.8571993,15.0001635 L1.97403623,15.0001635 C1.42920223,15.0001635 0.987018115,14.5522367 0.987018115,14.0003269 L0.987018115,2.00228855 C0.987018115,1.45037879 1.42920223,1.00245202 1.97403623,1.00245202 L7.88232667,1.00245202 C7.8734435,2.19975627 7.89614492,3.00212509 7.89614492,3.00212509 C7.89614492,4.10644453 8.78001964,5.00179815 9.87018115,5.00179815 L11.8442174,5.00179815 L11.8442174,14.0003269 L11.8442174,14.0003269 L11.8442174,14.0003269 Z M8.88316303,0.00261548934 L8.88316303,0.0166132008 C8.81999387,0.0166132008 8.55646004,-0.00788279425 7.89614492,0.00261548934 L1.97403623,0.00261548934 C0.883874722,0.00261548934 0,0.897969104 0,2.00228855 L0,14.0003269 C0,15.1046464 0.883874722,16 1.97403623,16 L10.8571993,16 C11.9473608,16 12.8312355,15.1046464 12.8312355,14.0003269 L12.8312355,5.00179815 L12.8312355,4.00196162 L8.88316303,0.00261548934 L8.88316303,0.00261548934 L8.88316303,0.00261548934 Z" id="file-document"></path>
                            <path d="M3,7.28571429 C3,8.54807943 4.06527557,9.57142857 5.4,9.57142857 L6.58875732,9.57142857 C7.25770824,9.57142857 7.8,10.0787026 7.8,10.7142857 C7.8,11.3454682 7.26880764,11.8571429 6.60125208,11.8571429 L5.39874787,11.8571429 C4.73669771,11.8571429 4.2,11.3356754 4.2,10.7193958 L3,10.7064733 C3,11.9760987 4.07267976,13 5.4058578,13 L6.5941422,13 C7.9228608,13 9,11.9854519 9,10.7142857 C9,9.45192057 7.93472448,8.42857143 6.6,8.42857143 L5.41124268,8.42857143 C4.74229182,8.42857143 4.2,7.92129737 4.2,7.28571429 C4.2,6.65453177 4.7311924,6.14285714 5.39874787,6.14285714 L6.60125208,6.14285714 C7.26330228,6.14285714 7.8,6.660784 7.8,7.28571429 L9,7.28571429 C9,6.02334914 7.92732024,5 6.5941422,5 L5.4058578,5 C4.07713922,5 3,6.01454811 3,7.28571429 Z" id="file-sql-path"></path>
                        </g>
                    </g>
                </g>
            </g>
        </g>
    </g>
</svg>